<?xml version="1.0" encoding="UTF-8"?>
<svg xmlns="http://www.w3.org/2000/svg" id="a" width="850" height="2072" viewBox="0 0 865.76 682.89">
  <g>
    <g>
      <g id="b">
        <path d="M483.61,228.31c-3.1-5.71-6.29-9.63-9.6-11.76-1.65,.07-3.23,.38-4.75,.93-3.92,1.44-7.53,4.57-10.84,9.39-4.54,6.61-6.47,12.66-5.78,18.16,.69,5.3,2.24,10.73,4.64,16.3,2.48,5.5,3.92,9.12,4.33,10.84h-.1c-10.35-10.09-18.85-15.56-25.49-16.41-.66-.09-1.31-.16-1.96-.21-6.31-.53-12.05,.68-17.23,3.61-5.71,3.1-9.63,6.29-11.76,9.6,.21,5.78,3.65,10.97,10.32,15.58,6.6,4.54,12.62,6.47,18.06,5.78,5.36-.69,10.83-2.24,16.41-4.64,5.5-2.48,9.29-4.2,11.35-5.16-10.11,10.66-15.62,19.5-16.51,26.52-.96,7.09,.17,13.48,3.4,19.19,3.09,5.71,6.29,9.63,9.6,11.76,1.65-.07,3.23-.38,4.75-.93,3.92-1.44,7.53-4.57,10.83-9.39,4.54-6.6,6.46-12.62,5.78-18.06-.68-5.36-1.98-10.83-3.92-16.4-1.84-5.41-3.39-9.33-4.64-11.76,1.01,1.81,3.83,4.6,8.46,8.36,4.75,3.72,9.6,6.6,14.55,8.67,5.02,2.06,11.35,1.75,18.98-.93,7.64-2.75,12.31-6.88,14.03-12.38-1.24-3.71-4.2-7.81-8.87-12.28-4.27-4.2-9.53-6.88-15.79-8.05-.62-.07-1.27-.14-1.96-.21-6.67-.96-15.82,1.65-27.45,7.84,8.8-9.49,13.65-17.75,14.55-24.76,.96-7.09-.17-13.48-3.4-19.19Z" fill="#f69074"></path>
      </g>
      <g id="c">
        <path d="M405.52,269.12c2.29-3.5,5.8-6.07,9.34-8.19,2.09-1.26,4.24-2.44,6.54-3.29s4.64-1.36,7.05-1.6c3.91-.39,8.04-.15,11.76,1.19,3.38,1.22,6.51,3.13,9.43,5.21,2.1,1.5,4.12,3.12,6.07,4.8,1.1,.95,2.17,1.91,3.24,2.9,.53,.49,1.06,.99,1.58,1.49,.33,.31,.79,1,1.28,1,.23,0,.37-.15,.31-.38-.28-1.14-.71-2.26-1.14-3.35-.71-1.83-1.49-3.64-2.28-5.43-2.06-4.67-3.85-9.39-4.89-14.41-.44-2.11-.83-4.27-.78-6.43,.04-2,.42-3.98,1.02-5.88,1.41-4.5,3.97-8.75,6.99-12.35,2.62-3.12,5.93-5.85,9.94-6.89,.6-.15,1.2-.27,1.81-.35,.27-.04,.54-.07,.81-.09,.37-.03,.52-.01,.82,.2,.69,.49,1.34,1.03,1.96,1.61,1.46,1.37,2.73,2.95,3.87,4.59,2.63,3.77,4.91,7.94,5.96,12.44,.98,4.21,1.04,8.77,.18,13-.69,3.35-2.11,6.53-3.82,9.48-2.22,3.85-4.94,7.39-7.84,10.75-.84,.98-1.71,1.93-2.58,2.88-.31,.33,.38,.86,.71,.69,4.28-2.27,8.68-4.36,13.28-5.89,3.42-1.14,7.01-2.03,10.63-2.1,3.95-.09,7.95,.74,11.59,2.24,4.3,1.77,7.82,4.58,11.01,7.92,1.6,1.67,3.12,3.45,4.4,5.38,.53,.81,1.03,1.64,1.46,2.51,.2,.4,.39,.8,.56,1.22,.16,.39,.38,.76,.25,1.17-1.06,3.38-3.59,6.19-6.44,8.19-3.77,2.64-8.28,4.26-12.75,5.22-4.08,.87-8.43,1.09-12.43-.3-2.2-.76-4.31-1.87-6.34-2.99-2.23-1.23-4.38-2.61-6.45-4.1s-4.01-3.08-5.9-4.76c-1.33-1.18-2.64-2.41-3.77-3.79-.36-.44-.69-.89-.96-1.39-.23-.42-1.07-.44-.77,.15,1.74,3.49,3.04,7.22,4.32,10.9,1.73,4.97,3.09,10.07,3.88,15.28,.3,2.02,.5,4,.27,6.03s-.81,4.1-1.58,6.03c-1.78,4.46-4.54,8.78-7.92,12.21-1.44,1.46-3.04,2.75-4.84,3.73-.9,.49-1.85,.91-2.83,1.21-.59,.18-1.18,.32-1.79,.43-.3,.05-.61,.1-.92,.14s-.79,.17-1.09,.08c-.33-.1-.72-.51-.99-.72-.34-.26-.66-.54-.98-.83-.72-.65-1.39-1.36-2.03-2.09-1.5-1.74-2.79-3.64-3.97-5.61s-2.36-4.13-3.18-6.36-1.31-4.43-1.55-6.73c-.4-3.82-.2-7.86,.96-11.55,1.04-3.3,2.73-6.38,4.62-9.27,2.49-3.81,5.37-7.34,8.41-10.72,.86-.96,1.74-1.91,2.63-2.85,.32-.34-.38-.84-.71-.69-8.08,3.77-16.17,7.77-25.01,9.36-2.1,.38-4.2,.65-6.34,.47s-4.14-.72-6.1-1.47c-2.29-.87-4.46-2.05-6.53-3.37s-4.07-2.82-5.82-4.55c-3.14-3.1-5.39-7.01-5.58-11.49-.02-.43-.91-.82-.89-.27,.16,3.96,1.85,7.58,4.4,10.57,3.22,3.78,7.57,6.74,12.02,8.86,3.84,1.83,8.09,2.98,12.37,2.5,5.28-.59,10.47-2.13,15.38-4.13,4.3-1.75,8.51-3.77,12.72-5.73l-.71-.69c-3.45,3.65-6.77,7.45-9.67,11.56-2.18,3.07-4.16,6.35-5.52,9.87s-1.81,7.32-1.69,11.09c.15,4.7,1.41,9.27,3.68,13.39s4.6,7.82,8.02,10.75c.34,.29,.69,.57,1.04,.83,.3,.22,.67,.57,1.03,.68,.49,.15,1.23-.05,1.73-.12,.65-.09,1.29-.21,1.92-.38,2.02-.54,3.9-1.49,5.59-2.71,3.92-2.85,6.9-6.97,9.19-11.19,2.05-3.77,3.57-7.97,3.49-12.32-.04-2.38-.52-4.79-.98-7.12-.53-2.69-1.2-5.36-1.99-7.98-1.34-4.45-2.93-8.88-4.79-13.15-.3-.69-.61-1.37-.95-2.04l-.77,.15c.68,1.25,1.68,2.32,2.67,3.32,1.62,1.64,3.37,3.15,5.15,4.62,4.06,3.35,8.57,6.22,13.34,8.44,1.9,.89,3.81,1.65,5.88,2.02s4.28,.39,6.41,.18c4.88-.49,9.85-2.03,14.15-4.38,3.32-1.82,6.31-4.34,8.1-7.73,.41-.77,.8-1.6,1.04-2.45,.11-.38-.08-.71-.22-1.06-.17-.43-.35-.86-.55-1.28-.9-1.91-2.11-3.69-3.42-5.34-2.97-3.74-6.52-7.26-10.67-9.69-1.93-1.13-4-2.03-6.13-2.71-1.14-.36-2.29-.66-3.46-.9-1.07-.22-2.17-.3-3.26-.42-3.44-.38-6.96,.15-10.29,1.01-4.55,1.18-8.92,3.02-13.14,5.08-1.23,.6-2.44,1.22-3.64,1.86l.71,.69c3.34-3.61,6.5-7.41,9.16-11.55,2-3.12,3.75-6.47,4.76-10.05,1.13-4.02,1.3-8.42,.71-12.54-.68-4.67-2.56-8.85-5-12.85-2.1-3.44-4.62-6.87-8-9.15-.42-.28-.66-.31-1.16-.27-.66,.05-1.31,.13-1.96,.26-1.1,.21-2.17,.55-3.19,.99-1.81,.78-3.45,1.89-4.94,3.18-3.62,3.13-6.44,7.33-8.51,11.62-1.81,3.76-2.97,7.96-2.57,12.16,.48,5,1.95,9.98,3.77,14.64,1.54,3.92,3.48,7.67,4.84,11.66,.16,.48,.32,.96,.44,1.46l.31-.38c-.09,0,.11-.02,.11-.03-.01-.06-.29-.28-.36-.34-.26-.25-.53-.51-.8-.76-.52-.49-1.04-.98-1.57-1.47-.95-.87-1.91-1.73-2.89-2.57-1.79-1.54-3.62-3.01-5.53-4.4-3.01-2.19-6.22-4.19-9.7-5.55s-7.5-1.77-11.34-1.57c-4.9,.25-9.39,1.75-13.65,4.13s-8.44,5.19-11.1,9.25c-.26,.4,.53,1.01,.78,.63Z" fill="#002346"></path>
      </g>
    </g>
    <g id="d">
      <g>
        <path d="M462.36,248.88c.24,2.62,.71,5.23,1.09,7.83,.66,4.58,1.38,9.15,1.99,13.73,.13,.95,.32,1.93,.33,2.89,0,.41,.89,.83,.88,.28,0-.79-.16-1.59-.26-2.37-.24-1.8-.49-3.59-.76-5.39-.67-4.58-1.36-9.16-2-13.74-.14-.98-.3-1.96-.39-2.95-.04-.41-.93-.81-.88-.28h0Z" fill="#002346"></path>
        <path d="M471.39,277.12c4.32-1.1,8.74-1.76,13.16-2.25,4.89-.54,9.79-.95,14.7-1.31,.52-.04-.05-.83-.46-.8-4.9,.36-9.81,.78-14.7,1.31-4.43,.48-8.85,1.15-13.16,2.25-.53,.13,.05,.91,.46,.8h0Z" fill="#002346"></path>
        <path d="M475.99,249.09c-1.63,4.49-3.09,9.05-4.61,13.58-.84,2.49-1.67,4.98-2.51,7.47-.14,.4,.71,.93,.86,.47,2.15-6.42,4.29-12.85,6.49-19.25,.21-.6,.41-1.2,.63-1.8,.14-.4-.69-.93-.86-.47h0Z" fill="#002346"></path>
        <path d="M434.86,280.99c7.21-1.44,14.46-2.69,21.71-3.9,2.65-.44,5.3-.88,7.96-1.31,.53-.09-.05-.87-.46-.8-8.19,1.33-16.37,2.69-24.52,4.22-1.72,.32-3.43,.65-5.14,.99-.53,.11,.05,.89,.46,.8h0Z" fill="#002346"></path>
        <path d="M431.67,267.07c6.83,.96,13.58,2.58,20.28,4.15,2.8,.66,5.6,1.33,8.39,2.02,.64,.16,.43-.65-.03-.76-8.17-2-16.36-3.99-24.63-5.51-1.42-.26-2.84-.5-4.27-.7-.6-.08-.16,.75,.25,.81h0Z" fill="#002346"></path>
        <path d="M464.27,281.2c-4.13,7.24-7.5,14.93-9.64,22.99-.11,.41,.74,.94,.86,.47,2.12-8,5.46-15.64,9.56-22.83,.23-.4-.56-1-.78-.63h0Z" fill="#002346"></path>
        <path d="M471.12,280.46c9.25,2.79,18.53,5.61,27.92,7.9,1.47,.36,2.95,.7,4.44,1,.24,.05,.34-.17,.3-.37-.05-.25-.33-.4-.55-.44-2.97-.59-5.91-1.35-8.83-2.13-4.54-1.21-9.06-2.5-13.57-3.82-3.25-.95-6.49-1.92-9.73-2.9-.63-.19-.42,.63,.03,.76h0Z" fill="#002346"></path>
        <path d="M467.62,283.24c.07,3.47,.14,6.94,.21,10.4,.11,5.48,.22,10.96,.33,16.44,.03,1.27,.05,2.53,.08,3.8,0,.41,.89,.82,.88,.28-.07-3.47-.14-6.94-.21-10.4-.11-5.48-.22-10.96-.33-16.44-.03-1.27-.05-2.53-.08-3.8,0-.41-.89-.82-.88-.28h0Z" fill="#002346"></path>
      </g>
    </g>
    <g>
      <g id="e">
        <path d="M473.6,282.91c1.79-1.79,2.68-3.92,2.68-6.4s-.9-4.61-2.68-6.4c-1.79-1.79-3.92-2.68-6.4-2.68s-4.61,.89-6.4,2.68c-1.79,1.79-2.68,3.92-2.68,6.4s.9,4.61,2.68,6.4c1.79,1.79,3.92,2.68,6.4,2.68s4.61-.89,6.4-2.68Z" fill="#fff"></path>
      </g>
      <g id="f">
        <path d="M475.86,276.35c-.03,3.57-2.26,6.91-5.63,8.2s-7.23,.26-9.59-2.49-2.7-6.76-.86-9.83,5.39-4.89,9.01-4.3c4.06,.66,7.04,4.36,7.08,8.42,0,.49,.93,.82,.92,.23-.04-3.96-2.54-7.62-6.27-9.03s-8-.25-10.61,2.8-2.94,7.42-.93,10.78,5.95,5.36,9.94,4.74c4.49-.7,7.82-4.8,7.87-9.28,0-.5-.92-.82-.92-.23Z" fill="#002346"></path>
      </g>
    </g>
    <g>
      <g id="g">
        <path d="M254.65,257.31c10.42-13.5,24.22-22.09,41.42-25.79,17.19-3.7,36.07-2.97,56.62,2.2,8.31,2.04,16.79,5.29,25.44,9.76,9.98,5.06,15.83,9.68,17.54,13.85-28.67-17.86-59.84-24.23-93.52-19.13,33.68-5.1,64.85,1.28,93.52,19.13-53.15-11.4-100.16-11.41-141.02-.02m34.78-16.65c2.27-.53,4.53-1.01,6.79-1.45-2.26,.44-4.52,.92-6.79,1.45Z" fill="#7cd295"></path>
      </g>
      <g id="h">
        <g>
          <path d="M289.69,241.14c2.25-.52,4.51-1,6.79-1.45,.25-.05,.31-.35,.22-.55-.11-.24-.38-.36-.63-.31-2.27,.44-4.53,.92-6.79,1.45-.59,.14-.1,.99,.41,.87h0Z" fill="#002346"></path>
          <path d="M396.15,257.25c-1.29-3.09-4.04-5.47-6.66-7.43-4.36-3.26-9.25-5.81-14.14-8.19-5.31-2.58-10.79-4.81-16.42-6.58-5.69-1.79-11.56-3.1-17.43-4.14-11.1-1.96-22.45-2.68-33.68-1.61-10,.96-19.91,3.25-28.98,7.65-8.51,4.12-16.04,10.04-22.18,17.22-.8,.94-1.58,1.9-2.33,2.88-.28,.36,.2,.86,.59,.75,8.06-2.24,16.25-4.02,24.51-5.35s17.31-2.29,26.03-2.77,18.29-.53,27.44-.16c9.65,.39,19.27,1.23,28.85,2.45,10.1,1.29,20.14,2.99,30.11,5.04,1.28,.26,2.56,.53,3.85,.81,.64,.14,.61-.76,.06-.87-10.11-2.17-20.3-3.99-30.55-5.39-9.62-1.32-19.3-2.26-29-2.76-9.19-.48-18.41-.55-27.61-.16s-17.52,1.17-26.2,2.44c-8.39,1.23-16.71,2.9-24.91,5.06-.99,.26-1.98,.53-2.97,.81l.59,.75c5.74-7.42,12.84-13.7,21.07-18.25,8.59-4.75,18.11-7.45,27.81-8.76,10.86-1.46,21.9-1.19,32.73,.36,11.55,1.65,22.94,4.54,33.65,9.22,5.27,2.31,10.5,4.9,15.37,7.98,3.19,2.02,6.55,4.38,8.68,7.57,.36,.53,.66,1.1,.91,1.69,.22,.52,1.09,.36,.84-.24Z" fill="#002346"></path>
          <path d="M395.87,256.98c-10.87-6.76-22.58-12.15-34.88-15.72s-24.62-5.2-37.17-5.17c-7.3,.02-14.59,.63-21.81,1.71-.59,.09-.1,.95,.41,.87,12.67-1.91,25.59-2.27,38.31-.69s24.34,4.82,35.72,9.73c6.62,2.86,13.01,6.25,19.14,10.05,.55,.34,.79-.48,.3-.79h0Z" fill="#002346"></path>
        </g>
      </g>
    </g>
    <g>
      <g id="i">
        <path d="M637.08,186.71c-11.14-7.47-23.58-10.44-37.33-8.91-13.75,1.53-27.65,6.79-41.69,15.77-5.69,3.6-11.21,8.14-16.54,13.62-6.19,6.27-9.4,11.17-9.63,14.71,16.93-20.47,38.59-33.01,64.99-37.61-26.4,4.6-48.06,17.13-64.99,37.61,36.81-21.77,71.87-33.5,105.2-35.2Z" fill="#7cd295"></path>
      </g>
      <g id="j">
        <g>
          <path d="M532.34,222.04c.19-2.55,1.65-4.93,3.08-6.97,2.34-3.33,5.19-6.3,8.08-9.15,3.12-3.08,6.43-5.96,9.95-8.57s7.19-4.88,10.97-7.02c7.49-4.23,15.46-7.67,23.79-9.87,7.75-2.04,15.86-3.08,23.87-2.33s15.4,3.27,22.15,7.29c.87,.52,1.73,1.06,2.58,1.63l.16-.76c-6.59,.34-13.15,1.06-19.66,2.13s-13.58,2.62-20.24,4.45-13.81,4.18-20.54,6.74c-7.07,2.69-14.02,5.7-20.83,8.98-7.3,3.51-14.44,7.32-21.45,11.38-.9,.52-1.79,1.04-2.68,1.57-.48,.29,.17,1.04,.61,.78,13.54-8,27.63-15.14,42.28-20.89,13.12-5.15,26.7-9.2,40.58-11.69,7.31-1.31,14.7-2.18,22.12-2.56,.41-.02,.49-.55,.16-.76-6.68-4.46-14.19-7.54-22.14-8.77s-16.26-.59-24.19,1.17c-8.39,1.87-16.46,5.03-24.05,9.03s-15.35,9.15-21.92,15.24c-3.21,2.98-6.35,6.13-9.06,9.58-1.77,2.26-3.58,4.8-4.3,7.62-.13,.5-.22,1.01-.26,1.53s.89,.82,.93,.22Z" fill="#002346"></path>
          <path d="M532.26,222.24c6.39-7.71,13.73-14.63,21.98-20.32s16.92-9.94,26.22-13.02c5.42-1.8,10.98-3.16,16.6-4.14,.58-.1,.09-.95-.41-.86-9.96,1.74-19.7,4.71-28.84,9.05s-17.1,9.73-24.43,16.27c-4.28,3.82-8.24,7.98-11.9,12.39-.34,.41,.43,1.04,.78,.63h0Z" fill="#002346"></path>
        </g>
      </g>
    </g>
    <g>
      <g id="k">
        <path d="M645.23,237.98c-7.57-12.67-18.56-21.46-32.97-26.38-14.41-4.93-30.68-6.24-48.81-3.94-7.35,.94-14.98,2.87-22.88,5.8-9.09,3.37-14.58,6.78-16.45,10.2,26.47-12.48,53.84-14.8,82.12-6.95-28.28-7.85-55.65-5.53-82.12,6.95,46.76-4.42,87.13,.35,121.12,14.32m-28.16-17.86c-1.92-.7-3.83-1.37-5.73-2.02,1.9,.65,3.81,1.33,5.73,2.02Z" fill="#7cd295"></path>
      </g>
      <g id="l">
        <g>
          <path d="M524.57,223.74c1.41-2.54,4.15-4.27,6.61-5.66,4.21-2.38,8.8-4.1,13.38-5.63,4.8-1.61,9.71-2.9,14.7-3.78s10.04-1.36,15.08-1.6c9.44-.45,18.96,.16,28.21,2.2,8.33,1.84,16.5,4.79,23.69,9.44,6.77,4.38,12.52,10.14,16.97,16.85,.56,.85,1.1,1.71,1.62,2.58l.6-.74c-6.75-2.77-13.66-5.14-20.68-7.14s-14.66-3.74-22.11-5.04-15.68-2.32-23.57-2.93c-8.33-.64-16.69-.9-25.05-.83-8.88,.08-17.76,.52-26.61,1.28-1.11,.1-2.23,.2-3.34,.3-.64,.06-.52,1.05,.11,.99,8.83-.83,17.69-1.37,26.56-1.54,8.4-.16,16.81,0,25.2,.56,7.92,.52,15.82,1.39,23.65,2.66s14.89,2.77,22.2,4.74,14.01,4.18,20.8,6.86c.82,.32,1.63,.65,2.45,.99,.48,.2,.84-.33,.6-.74-4.23-7.06-9.79-13.28-16.49-18.07s-14.96-8.29-23.24-10.44c-9.24-2.39-18.82-3.29-28.34-3.09-10.25,.22-20.44,1.59-30.26,4.57-4.92,1.49-9.83,3.24-14.44,5.54-2.95,1.47-6.05,3.2-8.18,5.78-.38,.46-.71,.95-1,1.47-.31,.55,.61,.96,.91,.4Z" fill="#002346"></path>
          <path d="M524.29,224.01c9.96-4.69,20.49-8.14,31.36-9.95s21.5-1.97,32.21-.66c6.21,.76,12.34,2.01,18.37,3.68,.62,.17,.75-.81,.14-.98-10.69-2.95-21.73-4.57-32.82-4.54s-21.6,1.67-31.97,4.75c-6.04,1.8-11.93,4.09-17.64,6.77-.58,.27-.21,1.2,.36,.93h0Z" fill="#002346"></path>
          <path d="M617.27,219.54c-1.89-.69-3.8-1.34-5.72-1.95-.25-.08-.54-.01-.65,.25-.1,.23,0,.57,.26,.65,1.92,.61,3.83,1.27,5.72,1.95,.6,.22,.99-.69,.39-.91h0Z" fill="#002346"></path>
        </g>
      </g>
    </g>
    <g>
      <g id="m">
        <path d="M497.93,162.45c-2.43-.1-3.86,1.85-4.3,5.84-.24,2.79-.39,7.25-.46,13.38-.13,6.16,2.58,11.79,8.15,16.88,5.32,5.2,13.36,9.7,24.15,13.48-4.45-.3-9.37-.81-14.75-1.52-5.68-.72-10.63-.39-14.85,.98-4.34,1.28-8.86,6.11-13.58,14.48-4.69,8.44-5.92,13.64-3.7,15.62,2.26,2.04,6.86,3.84,13.81,5.4,6.89,1.59,12.29,1.43,16.2-.47,3.87-1.82,10.87-10.84,20.98-27.07,.91,10.31,2.68,18.37,5.29,24.19,2.27,4.71,6.43,8.42,12.48,11.13,6.12,2.68,10.51,4.58,13.16,5.69,2.84,1.18,5.21-3.05,7.13-12.7,1.91-9.49,.42-16.6-4.45-21.33-5.13-4.62-14.92-8.85-29.37-12.69,13.12-1.44,22.48-3.15,28.06-5.14,5.39-1.91,8.36-5.73,8.9-11.48,.71-5.53,1.47-10.71,2.28-15.54,.51-2.17-.17-3.61-2.06-4.32-6.17-1.47-12.03-2.33-17.58-2.59-5.79-.3-10.43,2.72-13.91,9.04-3.36,6.27-6.61,14.36-9.75,24.26,.21-11.78-.68-21.05-2.68-27.82-2-6.77-5.33-11.19-9.98-13.26-4.27-1.73-10.67-3.2-19.19-4.44Z" fill="#f69074"></path>
      </g>
      <g id="n">
        <path d="M508.3,246.07c-2.74,1.31-5.83,1.63-8.83,1.49-3.89-.18-7.75-1.08-11.49-2.15-2.73-.78-5.55-1.68-7.95-3.24-.65-.42-1.38-.9-1.72-1.62s-.37-1.55-.32-2.32c.17-2.69,1.36-5.35,2.49-7.75,1.68-3.56,3.67-7.02,5.95-10.23,1.72-2.42,3.67-4.79,6.08-6.56,2.18-1.6,4.7-2.35,7.34-2.79,3.76-.64,7.6-.51,11.38-.02s7.79,.94,11.7,1.27c.89,.07,1.79,.14,2.69,.2,.6,.04,.16-.67-.15-.78-8.38-2.95-16.94-6.76-23.47-12.93-3.34-3.16-6.28-6.69-7.61-11.17-.63-2.13-.77-4.27-.75-6.47,.03-2.4,.08-4.81,.16-7.21,.06-1.74,.13-3.47,.27-5.2s.51-3.79,1.81-5.02c.49-.47,1.12-.73,1.8-.78,.57-.05,1.15,.1,1.71,.19,.7,.11,1.39,.22,2.09,.33,2.41,.4,4.82,.84,7.21,1.38,1.9,.43,3.79,.91,5.64,1.5,1.63,.52,3.22,1.08,4.66,2.02,3.4,2.2,5.57,5.84,6.95,9.56s2.12,7.64,2.61,11.56c.6,4.76,.81,9.56,.83,14.36,0,1.36,0,2.71-.03,4.07,0,.33,.73,.83,.87,.38,1.46-4.58,3.04-9.12,4.83-13.58,1.5-3.72,3.09-7.47,5.08-10.96,1.83-3.22,4.36-6.2,7.84-7.66,1.61-.67,3.36-.98,5.1-.95,2.27,.04,4.54,.28,6.79,.55,2.43,.3,4.85,.69,7.25,1.17,1.29,.26,2.68,.44,3.93,.86,.78,.26,1.44,.85,1.66,1.65,.26,.93-.02,1.88-.17,2.81-.19,1.16-.38,2.33-.56,3.49-.37,2.4-.72,4.81-1.05,7.22-.53,3.88-.64,7.96-3.13,11.19-2.02,2.61-5,3.93-8.08,4.86-7.21,2.17-14.81,3.16-22.27,4.05-1.27,.15-2.55,.3-3.82,.44-.5,.05,0,.71,.25,.78,4.91,1.31,9.79,2.77,14.54,4.58,3.6,1.37,7.16,2.93,10.45,4.94,2.81,1.72,5.3,3.75,6.92,6.67,1.99,3.6,2.46,7.81,2.2,11.85-.16,2.58-.64,5.12-1.22,7.64-.48,2.11-1.04,4.22-1.84,6.23-.63,1.57-2.05,4.9-4.32,4.06-1.47-.54-2.9-1.22-4.33-1.84-2.13-.92-4.26-1.85-6.39-2.78-4.3-1.88-8.49-3.93-11.66-7.51-2.64-2.97-4.01-6.65-5.1-10.42-1.32-4.56-2.11-9.27-2.66-13.99-.16-1.33-.29-2.66-.41-3.99-.02-.26-.6-.82-.83-.46-3.32,5.32-6.72,10.6-10.39,15.67-2.3,3.18-4.7,6.41-7.56,9.13-.89,.85-1.85,1.68-2.97,2.21-.43,.2,.26,.93,.64,.74,2.39-1.13,4.29-3.44,5.97-5.4,3.21-3.78,6.06-7.87,8.82-11.99,2.15-3.21,4.23-6.46,6.27-9.73l-.83-.46c.47,5.22,1.17,10.45,2.41,15.55,.94,3.88,2.11,8,4.38,11.33,2.54,3.73,6.25,6.47,10.28,8.43,2.4,1.16,4.88,2.17,7.32,3.23,1.82,.79,3.65,1.58,5.48,2.36,.99,.42,2.07,1.08,3.18,.79,1.03-.26,1.78-1.14,2.34-2,.94-1.47,1.54-3.15,2.05-4.81,.77-2.51,1.36-5.11,1.79-7.7,.74-4.41,.87-9.07-.57-13.35-1.16-3.44-3.32-6.3-6.23-8.44s-6.23-3.82-9.56-5.26c-4.56-1.97-9.29-3.53-14.06-4.91-1.37-.4-2.75-.78-4.13-1.15l.25,.78c8.31-.91,16.76-1.91,24.84-4.13,3.1-.85,6.21-1.9,8.57-4.19,1.21-1.17,2.13-2.61,2.76-4.17,.77-1.92,.94-3.95,1.21-5.99,.34-2.57,.7-5.14,1.09-7.7,.19-1.26,.38-2.52,.58-3.77,.17-1.08,.43-2.17,.54-3.26,.17-1.67-.64-3.1-2.15-3.83-1.05-.51-2.34-.64-3.47-.88-1.28-.27-2.57-.52-3.86-.74-2.51-.43-5.04-.77-7.58-.99-2.03-.18-4.12-.39-6.15-.09-3.6,.53-6.65,2.62-8.9,5.41-2.57,3.18-4.25,7.11-5.87,10.83-1.9,4.35-3.56,8.81-5.07,13.31-.42,1.26-.84,2.53-1.24,3.8l.87,.38c.09-5.3,0-10.61-.52-15.89-.4-4.05-1.02-8.12-2.18-12.03s-3.13-8.12-6.33-11.03c-2.8-2.54-6.4-3.61-9.98-4.54-2.22-.58-4.47-1.05-6.73-1.48-1.31-.25-2.63-.47-3.95-.68-1.14-.18-2.4-.55-3.56-.37-3.6,.54-3.77,5.46-3.92,8.25-.12,2.12-.18,4.25-.23,6.38-.06,2.5-.25,5.06,.05,7.55,.55,4.54,2.75,8.65,5.77,12.04,6.13,6.89,14.46,11.32,22.93,14.65,1.3,.51,2.6,.99,3.91,1.45l-.15-.78c-4-.28-8-.68-11.98-1.17s-8.02-.96-12.09-.54c-2.88,.3-5.95,.9-8.44,2.45s-4.49,3.75-6.24,6.04c-2.44,3.18-4.49,6.66-6.28,10.24-1.36,2.7-2.75,5.62-3.14,8.65-.23,1.75-.02,3.48,1.38,4.68,1.97,1.69,4.55,2.68,6.98,3.5,3.73,1.26,7.66,2.24,11.58,2.73,3.29,.41,6.75,.44,9.94-.58,.65-.21,1.28-.46,1.89-.75,.43-.21-.26-.93-.64-.74Z" fill="#002346"></path>
      </g>
    </g>
    <g id="o">
      <g>
        <path d="M509.17,198.88c3.6,2.94,7.2,5.87,10.8,8.81,.52,.42,1.03,.84,1.55,1.27,.48,.4,.98-.21,.49-.61-3.6-2.94-7.2-5.87-10.8-8.81-.52-.42-1.03-.84-1.55-1.27-.48-.4-.98,.21-.49,.61h0Z" fill="#002346"></path>
        <path d="M525.22,208.8c.05,.05-.16-.18-.2-.23-.11-.13-.21-.26-.32-.4-.27-.36-.53-.73-.77-1.1-.76-1.14-1.47-2.32-2.17-3.5-2.25-3.82-4.4-7.7-6.4-11.65-1.06-2.08-2.14-4.15-3.33-6.16-.27-.45-1.15-.35-.82,.21,2.35,3.99,4.31,8.2,6.56,12.25,1.69,3.05,3.39,6.11,5.3,9.02,.5,.76,1.01,1.53,1.65,2.17,.45,.44,.93-.17,.49-.61h0Z" fill="#002346"></path>
        <path d="M526.85,206.56c-.78-1.86-1.34-3.81-1.91-5.74-.96-3.29-1.84-6.6-2.69-9.92-.12-.49-1.05-.62-.9-.02,.86,3.37,1.75,6.74,2.73,10.08,.58,1.95,1.16,3.93,1.94,5.81,.21,.5,1.07,.39,.82-.21h0Z" fill="#002346"></path>
        <path d="M530.08,216.47c1.17,1.56,2.44,3.04,3.68,4.54,2.61,3.15,5.24,6.28,7.87,9.41,2.13,2.53,4.25,5.05,6.38,7.57,.37,.44,1.1,.08,.68-.42-5.49-6.5-11.02-12.98-16.39-19.58-.52-.64-1.05-1.28-1.55-1.94-.35-.46-1.07-.1-.68,.42h0Z" fill="#002346"></path>
        <path d="M533.53,216.63c.76,.41,1.47,.96,2.17,1.47,1.49,1.08,2.94,2.2,4.42,3.29,3.37,2.48,6.82,4.86,10.31,7.17,.51,.34,1.02-.26,.49-.61-3.55-2.35-7.05-4.76-10.48-7.29-1.46-1.08-2.9-2.19-4.37-3.25-.73-.53-1.47-1.1-2.27-1.53-.58-.31-.78,.48-.27,.75h0Z" fill="#002346"></path>
        <path d="M538.69,238.85c-1.47-3.76-2.96-7.5-4.56-11.21-1.04-2.41-2.11-4.82-3.35-7.14-.44-.81-.89-1.62-1.43-2.37-.34-.48-1.06-.11-.68,.42,1.07,1.51,1.87,3.23,2.66,4.89,1.37,2.9,2.62,5.86,3.83,8.83,.92,2.25,1.82,4.52,2.71,6.79,.2,.5,1.05,.4,.82-.21h0Z" fill="#002346"></path>
        <path d="M509.42,235.79c4.44-4.91,8.88-9.83,13.24-14.81,.83-.95,1.66-1.9,2.48-2.86,.34-.39-.44-1.02-.78-.63-3.69,4.3-7.47,8.52-11.26,12.73-1.49,1.65-2.97,3.3-4.47,4.95-.35,.38,.43,1.02,.78,.63h0Z" fill="#002346"></path>
        <path d="M498.37,232.31c5.94-3.97,12.06-7.69,18.15-11.41,2.55-1.56,5.11-3.11,7.67-4.66,.47-.28-.19-1.03-.62-.77-7.41,4.49-14.83,8.98-22.12,13.66-1.24,.79-2.47,1.6-3.69,2.41-.46,.31,.2,1.05,.62,.77h0Z" fill="#002346"></path>
        <path d="M530.2,209.74c2.39-1.5,4.59-3.3,6.74-5.12,3.2-2.71,6.25-5.59,9.32-8.45,1.63-1.52,3.23-3.06,4.78-4.65,.36-.37-.42-1-.78-.63-2.87,2.97-5.92,5.77-8.96,8.56-2.67,2.45-5.4,4.87-8.27,7.09-1.11,.86-2.25,1.69-3.44,2.44-.46,.29,.2,1.03,.62,.77h0Z" fill="#002346"></path>
        <path d="M506.57,218.54c5.46-.45,10.87-1.35,16.25-2.36,.57-.11,.06-.94-.42-.85-5.3,.99-10.65,1.89-16.03,2.33-.63,.05-.31,.92,.2,.87h0Z" fill="#002346"></path>
        <path d="M532.79,211.8c2.15-.55,4.22-1.44,6.25-2.33,3.33-1.46,6.59-3.07,9.83-4.72,2.41-1.23,4.81-2.49,7.21-3.76,.48-.26-.18-1-.62-.77-3.91,2.08-7.84,4.12-11.82,6.05-2.7,1.31-5.43,2.59-8.24,3.67-.99,.38-2,.74-3.03,1-.57,.14-.06,.97,.42,.85h0Z" fill="#002346"></path>
      </g>
    </g>
    <g>
      <g id="p">
        <path d="M536.2,210.34c-.88-2.13-2.46-3.66-4.73-4.57-2.24-.85-4.48-.78-6.71,.22-2.08,1.01-3.54,2.63-4.39,4.88-.85,2.24-.81,4.42,.14,6.52,.97,2.17,2.58,3.68,4.83,4.53,2.24,.85,4.45,.79,6.62-.18,2.17-.98,3.66-2.54,4.48-4.69,.91-2.27,.84-4.51-.23-6.71Z" fill="#fff"></path>
      </g>
      <g id="q">
        <path d="M531.37,206.09c1.42,.59,2.68,1.45,3.58,2.7,.98,1.36,1.64,3.13,1.68,4.81,.06,3.25-1.88,6.25-4.79,7.63-3.16,1.49-7.16,.81-9.52-1.82s-2.63-6.53-.9-9.64c2-3.57,6.26-5.03,10.07-3.64,.61,.22,.49-.65,.01-.82-3.7-1.35-7.98-.25-10.32,2.99s-2.42,7.35-.23,10.6c2.07,3.06,6.13,4.64,9.72,3.74s6.29-3.88,6.8-7.6c.56-4.12-2.11-8.15-5.85-9.69-.6-.25-.78,.51-.25,.73Z" fill="#002346"></path>
      </g>
    </g>
    <g>
      <g id="r">
        <path d="M464.54,58.83l-4.09-2.11c-3.96,12.58-7.7,22.69-11.21,30.34-2.11,4.4-5.19,10.95-9.23,19.65,0,.18,.04,.4,.13,.66,.09,.53,.18,1.14,.26,1.85-.09-.7-.18-1.32-.26-1.85-.09-.26-.13-.48-.13-.66-.7-5.45-1.89-12.88-3.56-22.29-.88-5.01-1.93-12.22-3.17-21.63-1.32-9.76-1.98-15.79-1.98-18.07l-4.49,.92c.35,5.37,1.54,15.08,3.56,29.16,.04,.31,.09,.61,.13,.92-1.83-1.83-4.11-4.17-6.86-6.99-5.41-5.41-9.24-9.33-11.48-11.74-.98,1.36-1.77,2.46-2.37,3.3,2.54,2.94,7.34,8.13,14.38,15.57,3.1,3.28,5.61,5.92,7.52,7.91,1.59,10.5,3.17,19.86,4.75,28.1,.88,4.4,1.67,8.18,2.37,11.34l-17.15-12.4c-.79,1.23-1.45,2.38-1.98,3.43,3.17,2.29,9.89,7.34,20.18,15.17,2.46,13.54,4.05,22.95,4.75,28.23l3.96-1.05c-.18-6.68-1.32-14.77-3.43-24.27-.44-1.76-.83-3.39-1.19-4.88-1.32-6.68-1.89-11.08-1.71-13.19,4.66-10.11,8.18-18.07,10.55-23.88,1.23-3.25,5.15-13.76,11.74-31.53Z" fill="#fff"></path>
      </g>
      <g id="s">
        <g>
          <path d="M426.36,45.5c.45,6.87,1.42,13.71,2.35,20.53,.4,2.91,.81,5.83,1.22,8.74,.07,.49,.98,.64,.89,.02-1.19-8.28-2.38-16.56-3.2-24.89-.14-1.38-.26-2.77-.35-4.16-.03-.47-.95-.82-.91-.24h0Z" fill="#002346"></path>
          <path d="M427.03,46.05c1.5-.31,2.99-.62,4.49-.92l-.67-.54c0,2.51,.35,5.04,.64,7.53,.55,4.84,1.21,9.66,1.86,14.49,.6,4.47,1.23,8.93,1.93,13.39s1.5,8.73,2.23,13.09,1.47,9.06,2.06,13.61c.05,.38,.7,.64,.88,.24,2.88-6.21,5.77-12.42,8.72-18.59s5.13-11.98,7.3-18.12c1.56-4.4,3.02-8.83,4.42-13.29l-.57,.15c1.36,.7,2.73,1.41,4.09,2.11l-.31-.59c-2.62,7.07-5.25,14.14-7.88,21.21-1.28,3.44-2.51,6.91-3.86,10.32-2.6,6.59-5.6,13.05-8.54,19.49-.46,1.01-.93,2.03-1.39,3.04-.33,.71-.65,1.3-.67,2.09-.02,1.14,.1,2.29,.22,3.43,.43,3.82,1.13,7.63,2.04,11.36,1.95,8.02,3.51,16.21,3.99,24.46,.05,.82,.08,1.64,.1,2.46l.24-.3c-1.32,.35-2.64,.7-3.96,1.05l.66,.43c-.87-6.48-2.02-12.93-3.16-19.37-.42-2.35-.84-4.7-1.26-7.05-.1-.56-.11-1.29-.33-1.81-.2-.49-.87-.81-1.28-1.13-.96-.73-1.92-1.46-2.89-2.19-3.2-2.43-6.41-4.86-9.62-7.27-2.19-1.64-4.38-3.29-6.6-4.89l.2,.52c.58-1.15,1.24-2.26,1.93-3.34l-.63-.02c5.01,3.62,10.01,7.24,15.02,10.86,.71,.51,1.42,1.03,2.13,1.54,.27,.2,.79,.16,.69-.29-2.19-9.88-4-19.84-5.63-29.83-.45-2.77-.89-5.54-1.31-8.32-.09-.57-.06-1.17-.45-1.61-.34-.38-.71-.75-1.06-1.13-.72-.77-1.44-1.53-2.16-2.3-3.61-3.83-7.24-7.65-10.83-11.5-2.6-2.78-5.19-5.57-7.69-8.45l.05,.52c.8-1.09,1.62-2.16,2.44-3.23l-.72-.11c4.59,4.95,9.44,9.66,14.15,14.49,1.37,1.4,2.74,2.79,4.12,4.18,.26,.26,.86,.35,.78-.19-.04-.31-.09-.62-.13-.92-.07-.49-.98-.64-.89-.02,.04,.31,.09,.62,.13,.92l.78-.19c-5.2-5.22-10.39-10.45-15.5-15.75-.93-.96-1.86-1.93-2.77-2.91-.16-.18-.53-.36-.72-.11-.82,1.07-1.64,2.14-2.44,3.23-.11,.16-.07,.38,.05,.52,5.48,6.33,11.34,12.34,17.08,18.43,1.5,1.59,3,3.18,4.5,4.78,.38,.41,.35,1.06,.43,1.6,.11,.73,.22,1.46,.34,2.18,.22,1.38,.43,2.77,.66,4.15,.82,5.09,1.67,10.17,2.6,15.23,1,5.47,2.1,10.91,3.31,16.34l.69-.29c-5.01-3.62-10.01-7.24-15.02-10.86-.71-.51-1.42-1.03-2.13-1.54-.16-.11-.49-.24-.63-.02-.73,1.14-1.42,2.31-2.03,3.52-.08,.17,.06,.43,.2,.52,4.68,3.38,9.27,6.9,13.88,10.38,2.1,1.59,4.2,3.19,6.3,4.79l-.2-.31c1.46,8.03,2.92,16.08,4.16,24.15,.21,1.36,.41,2.72,.59,4.08,.04,.27,.4,.5,.66,.43,1.32-.35,2.64-.7,3.96-1.05,.14-.04,.25-.15,.24-.3-.22-7.84-1.54-15.64-3.2-23.29-.47-2.16-1.1-4.29-1.52-6.46-.39-2-.76-4.01-1.07-6.02-.22-1.45-.42-2.91-.52-4.38-.03-.5-.06-1.01-.05-1.51,.01-.79,.4-1.43,.73-2.15,3.13-6.81,6.22-13.64,9.11-20.56,1.41-3.38,2.63-6.85,3.91-10.28,2.46-6.6,4.91-13.2,7.36-19.81,.39-1.06,.79-2.13,1.18-3.19,.09-.23-.11-.49-.31-.59-1.36-.7-2.73-1.41-4.09-2.11-.18-.1-.49-.09-.57,.15-2.34,7.42-4.83,14.81-7.69,22.04-2.17,5.48-4.71,10.76-7.22,16.09-1.86,3.95-3.7,7.91-5.54,11.86l.88,.24c-1.09-8.45-2.69-16.81-4.05-25.21-1.49-9.18-2.72-18.42-3.82-27.65-.36-2.98-.81-6.02-.82-9.02,0-.33-.35-.61-.67-.54-1.5,.31-2.99,.62-4.49,.92-.57,.12-.04,.94,.43,.84h0Z" fill="#002346"></path>
          <path d="M439.55,106.58c0,.21,.04,.43,.1,.63s.09,.41,.12,.62c.07,.45,.13,.91,.19,1.36,.03,.23,.32,.45,.55,.44,.26,0,.37-.18,.34-.42-.06-.44-.11-.88-.18-1.32-.03-.19-.05-.39-.1-.57-.03-.1-.06-.2-.08-.3-.01-.05-.02-.1-.03-.15,.01,.1,0-.04,0-.06,0-.24-.21-.48-.45-.54-.21-.05-.47,.04-.47,.29h0Z" fill="#002346"></path>
        </g>
      </g>
    </g>
    <g>
      <g id="t">
        <path d="M401.17,52.3c.04,.08,.1,.19,.19,.34,1.4,2.91,3.41,5.44,6.03,7.6,2.35,2.02,4.29,3.18,5.79,3.47,.26-.06,.41-.05,.45,.03,4.09-.97,4.63-4.9,1.62-11.8-2.45-5.72-5.05-8.45-7.8-8.19-.46-.13-1.01,0-1.66,.4-1.6,.77-2.84,1.58-3.73,2.42-.8,.99-1.23,1.97-1.29,2.92,.21,1.8,.34,2.74,.38,2.81m-7.47,6.38c.17,2.94,1.14,4.99,2.92,6.14,1.98,1.33,3.76,2.22,5.36,2.68,1.41,.46,3.21,.68,5.41,.66,2.1,.14,3.65-.09,4.66-.71,1.08-.66,1.46-1.91,1.13-3.74-1.51-.3-3.44-1.46-5.79-3.47-2.62-2.16-4.63-4.69-6.03-7.6-.08-.15-.15-.27-.19-.34-5.1,.17-7.67,1.98-7.69,5.45,.09,.35,.17,.66,.22,.93m3.09-12.55c-.19,.01-.41,.05-.67,.1-3.96,1.91-5.3,5.26-4.02,10.06,.16,.82,.69,1.61,1.59,2.38-.05-.27-.13-.58-.22-.93,.03-3.47,2.59-5.29,7.69-5.45-.04-.08-.17-1.01-.38-2.81,.06-.95,.49-1.92,1.29-2.92-1.87-.79-3.64-.93-5.29-.43m.67-1.93c-.12,.48-.35,1.13-.67,1.93,1.65-.5,3.41-.35,5.29,.43,.89-.85,2.13-1.65,3.73-2.42,.65-.4,1.2-.53,1.66-.4-.47-1.03-1.29-1.75-2.47-2.15-1.83-.71-3.47-.73-4.93-.04-1.31,.59-2.17,1.48-2.59,2.65Z" fill="#fbe493"></path>
      </g>
      <g id="u">
        <g>
          <path d="M407.86,43.67c-.51-1.08-1.4-1.87-2.49-2.32-1.32-.55-2.79-.88-4.22-.62-1.21,.22-2.41,.85-3.23,1.77s-1.07,2.24-1.53,3.39c-.12,.3,.37,.72,.66,.64,1.73-.5,3.43-.26,5.07,.41,.13,.05,.27,.03,.37-.07,.66-.62,1.42-1.14,2.2-1.6,.45-.26,.91-.49,1.36-.72s.93-.55,1.44-.43c.64,.15,.43-.66-.03-.76-1.11-.26-2.16,.48-3.09,1s-1.86,1.15-2.66,1.89l.37-.07c-1.76-.72-3.65-.98-5.5-.45l.66,.64c.38-.94,.57-2.05,1.17-2.89,.63-.89,1.65-1.53,2.69-1.82,1.21-.34,2.46-.2,3.62,.21,1.07,.37,1.88,.89,2.37,1.94,.2,.43,1.03,.46,.75-.13Z" fill="#002346"></path>
          <path d="M407.71,44.13c1.27-.1,2.38,.55,3.27,1.41,1.36,1.33,2.33,3.06,3.15,4.76,.97,1.99,1.84,4.08,2.32,6.24,.31,1.4,.49,2.96-.02,4.34s-1.67,2.11-3.01,2.44l.44,.14c-.27-.23-.56-.23-.89-.17-.12,.02-.23,.13-.21,.26,.21,1.26,.21,2.75-1.01,3.51-1.1,.68-2.53,.75-3.79,.71-1.58-.05-3.17-.04-4.73-.35-1.41-.28-2.77-.81-4.04-1.47s-2.68-1.39-3.57-2.51c-.81-1.02-1.2-2.34-1.36-3.61-.04-.32-.01-.7-.09-1.01-.09-.36-.38-.51-.63-.77-.54-.55-.84-1.16-1.03-1.9-.33-1.33-.52-2.72-.33-4.09,.17-1.21,.64-2.35,1.41-3.29s2.15-2.12,3.46-2.23c.53-.04-.05-.84-.46-.8-1.28,.11-2.51,1.08-3.38,1.97s-1.46,1.97-1.75,3.15c-.32,1.31-.28,2.68-.06,4,.12,.72,.25,1.49,.56,2.16,.35,.76,.93,1.38,1.55,1.93l-.23-.4c.12,1.81,.52,3.65,1.64,5.12s3.12,2.54,4.82,3.34,3.6,1.33,5.52,1.49c1.19,.1,2.41,.13,3.6,.12,.89-.01,1.79-.09,2.64-.38,.78-.26,1.48-.69,1.88-1.44,.48-.9,.43-1.96,.27-2.93l-.21,.26c.47-.08-.14-.12,.07-.08,.09,.02,.17,.1,.28,.11,.16,.02,.33-.06,.47-.1,.37-.11,.73-.25,1.07-.43,.57-.3,1.09-.74,1.46-1.27,.89-1.27,.95-2.92,.75-4.41-.31-2.34-1.2-4.58-2.17-6.72s-2.08-4.28-3.72-5.94c-1.18-1.19-2.67-2.07-4.39-1.94-.53,.04,.05,.84,.46,.8h0Z" fill="#002346"></path>
          <path d="M407.2,60.48c1.06,.9,2.16,1.76,3.36,2.48,.86,.51,1.78,.94,2.77,1.14,.23,.05,.35-.17,.3-.37-.07-.25-.32-.4-.55-.44-.85-.17-1.65-.6-2.39-1.04-1.09-.66-2.1-1.46-3.07-2.29-.15-.13-.45-.23-.6-.06s.04,.45,.18,.57h0Z" fill="#002346"></path>
          <path d="M401,52.69c1.47,3.03,3.61,5.65,6.2,7.79,.15,.12,.45,.24,.6,.06s-.03-.45-.18-.57c-2.46-2.04-4.47-4.52-5.86-7.4-.21-.43-1.04-.46-.75,.13h0Z" fill="#002346"></path>
          <path d="M400.82,52.35c.06,.11,.13,.23,.19,.34,.03,.06,.07,.11,.12,.15,.05,.05,.1,.09,.16,.12,.05,.03,.11,.05,.17,.06,.05,.02,.1,.02,.16,0l.09-.03c.06-.03,.09-.08,.11-.14v-.09c0-.07-.02-.14-.05-.21-.06-.11-.13-.23-.19-.34-.03-.06-.07-.11-.12-.15-.05-.05-.1-.09-.16-.12-.05-.03-.11-.05-.17-.06-.05-.02-.1-.02-.16,0l-.09,.03c-.06,.03-.09,.08-.11,.14v.09c0,.07,.02,.14,.05,.21h0Z" fill="#002346"></path>
          <path d="M400.96,51.88c-2.93,.1-6.74,.81-7.68,4.07-.11,.37-.17,.75-.2,1.14-.05,.54,.11,1.01,.22,1.54,.08,.42,.96,.68,.85,.08-.06-.3-.18-.61-.2-.92-.01-.21,.02-.44,.05-.65,.05-.38,.14-.76,.28-1.11,.27-.7,.74-1.32,1.33-1.77,1.62-1.25,3.84-1.5,5.82-1.57,.25,0,.23-.32,.15-.47-.12-.22-.36-.35-.61-.34h0Z" fill="#002346"></path>
          <path d="M401.71,46.24c-.45,.56-.84,1.18-1.09,1.86-.11,.29-.18,.59-.22,.89-.05,.37,0,.71,.05,1.08,.06,.51,.13,1.03,.2,1.54,.04,.25,.06,.52,.16,.75,.2,.43,1.02,.47,.75-.13,.11,.25,.02,.05,.03,.04,0,0,0-.04-.01-.05,0-.05,.02,.1,0,0-.02-.13-.04-.27-.06-.4-.07-.49-.13-.97-.19-1.46-.04-.31-.11-.62-.07-.93,.04-.27,.11-.54,.2-.81,.23-.64,.6-1.21,1.02-1.74,.28-.35-.5-.98-.78-.63h0Z" fill="#002346"></path>
        </g>
      </g>
    </g>
    <g>
      <g id="v">
        <path d="M467.88,47.45c-.62-.61-1.1-1.1-1.45-1.45-.79-.88-1.93-1.32-3.43-1.32-1.67,0-3.25,.71-4.75,2.11-.97,.88-1.5,1.85-1.58,2.9,.44-.26,1.06-.35,1.85-.26,1.85,0,3.34,.22,4.49,.66,1.49-1.5,3.12-2.37,4.88-2.64m-1.72,7.91v-.39c0-.09-.26-1.01-.79-2.77-.44-.88-1.23-1.58-2.37-2.11-1.14-.44-2.64-.66-4.49-.66-.79-.09-1.41,0-1.85,.26-2.82,.97-4.27,4.57-4.35,10.82-.18,7.65,1.93,11.04,6.33,10.16,.09-.09,.26-.13,.53-.13,1.32-.97,2.73-2.9,4.22-5.8,1.58-3.08,2.51-6.2,2.77-9.37m0-.39v.39c-.26,3.17-1.19,6.29-2.77,9.37-1.5,2.9-2.9,4.84-4.22,5.8,.35,1.76,1.19,2.73,2.51,2.9,1.23,.09,2.81-.35,4.75-1.32,2.11-.97,3.78-1.93,5.01-2.9,1.32-1.06,2.68-2.64,4.09-4.75,1.32-1.85,1.45-4.13,.4-6.86-.09-.26-.18-.57-.26-.92-1.41-3.17-4.57-3.74-9.5-1.71m2.37-7.65c-.26,0-.48,.04-.66,.13-1.76,.27-3.39,1.14-4.88,2.64,1.14,.53,1.93,1.23,2.37,2.11,.53,1.76,.79,2.68,.79,2.77,4.92-2.02,8.09-1.45,9.5,1.71,.09,.35,.18,.66,.26,.92,.53-1.05,.7-2.02,.53-2.9-.7-4.92-3.34-7.39-7.91-7.39Z" fill="#fbe493"></path>
      </g>
      <g id="w">
        <g>
          <path d="M457.2,49.71c.24-2.27,2.75-4.13,4.88-4.51,1.06-.19,2.25-.11,3.21,.42,.89,.49,1.61,1.44,2.32,2.15,.12,.12,.34,.14,.49,.08,.55-.23,1.28-.09,1.86-.02s1.17,.21,1.72,.42c.93,.35,1.77,.91,2.41,1.67,.73,.85,1.2,1.87,1.52,2.94,.18,.6,.29,1.21,.39,1.82,.13,.89-.05,1.62-.39,2.44-.29,.71,.22,1.44,.38,2.17s.23,1.47,.16,2.2c-.16,1.61-1.1,2.86-2.04,4.11-.86,1.13-1.8,2.24-2.91,3.13s-2.48,1.67-3.81,2.32c-1.55,.77-3.21,1.66-4.96,1.8-1.61,.13-2.4-1-2.71-2.45-.06-.28-.26-.46-.55-.44-.43,.02-.64,.16-1.02,.21-.33,.04-.67,.07-1.01,.05-.58-.03-1.16-.18-1.66-.49-1.17-.71-1.76-2.09-2.1-3.36-.57-2.11-.58-4.36-.51-6.53s.26-4.33,1-6.33c.55-1.49,1.47-2.87,3.02-3.43,.61-.22,.25-1.15-.35-.93-3.76,1.34-4.43,6.27-4.62,9.68-.13,2.41-.15,4.9,.38,7.27,.35,1.54,.95,3.17,2.24,4.18,.59,.47,1.3,.77,2.04,.88,.4,.06,.81,.07,1.21,.05,.51-.03,1-.24,1.48-.26l-.55-.44c.33,1.54,1.14,3.1,2.86,3.33,1.98,.27,4.02-.82,5.74-1.64,1.83-.88,3.67-1.87,5.17-3.26s2.95-3.14,3.94-4.96c1.13-2.08,.82-4.49,.02-6.62v.38c.38-.82,.66-1.7,.62-2.62-.03-.74-.21-1.5-.4-2.21-.34-1.31-.9-2.59-1.8-3.62-.8-.92-1.82-1.62-2.98-2.03-.62-.22-1.27-.36-1.93-.44-.71-.08-1.54-.19-2.21,.09l.49,.08c-.85-.85-1.66-1.9-2.78-2.41s-2.57-.59-3.81-.31c-2.44,.55-5.15,2.65-5.43,5.28-.07,.63,.92,.79,.99,.15Z" fill="#002346"></path>
          <path d="M457,50.04c.42-.23,.92-.21,1.38-.19,.57,.03,1.14,.02,1.7,.07,.94,.08,1.87,.23,2.76,.56,.23,.08,.42,.02,.59-.14,1.26-1.24,2.78-2.17,4.55-2.46,.63-.1,.53-1.09-.11-.99-2.04,.33-3.76,1.38-5.22,2.82l.59-.14c-1.09-.41-2.23-.59-3.39-.66s-2.4-.25-3.44,.32c-.56,.31,.03,1.12,.58,.81h0Z" fill="#002346"></path>
          <path d="M475.24,56.8c.08,.31,.16,.62,.26,.92,.04,.12,.15,.23,.27,.28s.26,.06,.38,.01c.12-.05,.23-.14,.28-.27s.05-.25,0-.38c-.1-.3-.19-.61-.26-.92-.02-.06-.06-.12-.11-.16-.04-.05-.1-.09-.16-.12-.11-.05-.26-.06-.38-.01-.12,.05-.23,.14-.28,.27l-.04,.12c-.01,.09,0,.17,.03,.25h0Z" fill="#002346"></path>
          <path d="M466.38,55.38c1.77-.72,3.78-1.39,5.71-1.08,1.46,.24,2.53,1.17,3.14,2.5,.26,.58,1.2,.24,.93-.35-.72-1.59-1.98-2.75-3.72-3.1-2.15-.43-4.44,.29-6.42,1.09-.6,.24-.24,1.18,.35,.93h0Z" fill="#002346"></path>
          <path d="M465.71,54.96c0,1.44-.33,2.94-.7,4.33-.42,1.56-1,3.08-1.71,4.54-1.07,2.21-2.37,4.74-4.38,6.24-.51,.39,.07,1.2,.58,.81,2.16-1.62,3.56-4.28,4.71-6.65,1.38-2.85,2.49-6.17,2.49-9.37,0-.64-.99-.54-.99,.1h0Z" fill="#002346"></path>
          <path d="M462.84,50.49c.55,.26,1.06,.57,1.49,1,.18,.18,.34,.39,.48,.6,.17,.26,.23,.55,.32,.84,.15,.51,.3,1.01,.44,1.52,.04,.14,.08,.28,.12,.43,0,.03,.01,.06,.02,.08,.02,.05-.02-.14-.01-.05,0,.02,0,.04,.01,.06,.03,.64,1.02,.54,.99-.1-.01-.25-.13-.53-.19-.77-.16-.56-.33-1.12-.49-1.68-.1-.35-.22-.65-.42-.96-.17-.26-.38-.5-.61-.72-.5-.49-1.11-.86-1.74-1.16-.58-.27-.98,.64-.4,.91h0Z" fill="#002346"></path>
        </g>
      </g>
    </g>
    <g>
      <g id="x">
        <path d="M429.1,35.02c-.02,.08-.06,.21-.1,.38-1.01,3.1-1.3,6.39-.87,9.87,.33,3.19,.95,5.44,1.87,6.78,.23,.15,.34,.27,.32,.36,3.74,2.37,6.92-.01,9.56-7.14,2.21-5.87,2.2-9.74-.03-11.62-.25-.43-.76-.75-1.52-.95-1.74-.65-3.24-1-4.49-1.07-1.3,.11-2.31,.47-3.03,1.1-1.11,1.43-1.68,2.19-1.7,2.28m-10.09-1.07c-1.96,2.21-2.68,4.38-2.16,6.52,.54,2.42,1.24,4.38,2.11,5.89,.72,1.38,1.91,2.88,3.57,4.51,1.46,1.67,2.79,2.66,3.98,2.98,1.27,.34,2.44-.26,3.49-1.8-.92-1.34-1.54-3.6-1.87-6.78-.43-3.48-.14-6.78,.87-9.87,.05-.17,.08-.3,.1-.38-3.93-3.69-7.13-4.32-9.6-1.89-.18,.32-.34,.59-.49,.82m11.18-6.56c-.15-.13-.34-.27-.57-.43-4.3-1.61-7.68-.24-10.12,4.12-.46,.7-.63,1.65-.5,2.87,.15-.23,.32-.51,.49-.82,2.47-2.43,5.67-1.8,9.6,1.89,.02-.08,.59-.84,1.7-2.28,.71-.63,1.72-1,3.03-1.1-.84-1.96-2.06-3.37-3.64-4.25m1.87-.86c-.43,.25-1.05,.54-1.87,.86,1.58,.88,2.8,2.3,3.64,4.25,1.26,.06,2.76,.42,4.49,1.07,.76,.21,1.27,.52,1.52,.95,.38-1.08,.27-2.2-.33-3.36-.86-1.87-2.08-3.11-3.65-3.71-1.4-.56-2.67-.58-3.81-.06Z" fill="#fbe493"></path>
      </g>
      <g id="y">
        <g>
          <path d="M440.24,33.77c.49-1.48,.17-2.82-.53-4.17-.56-1.08-1.31-2.09-2.32-2.81s-2.35-1.21-3.64-1.23c-1.4-.02-2.54,.75-3.8,1.26-.43,.17-.38,.71-.01,.91,1.57,.89,2.66,2.34,3.37,3.97,.07,.15,.21,.31,.39,.32,1.01,.06,2.01,.27,2.99,.56,.54,.16,1.07,.36,1.6,.54,.44,.14,.84,.32,1.1,.72,.34,.54,1.14-.02,.8-.57-.61-.96-1.94-1.22-2.94-1.54-1.11-.35-2.24-.62-3.4-.69l.39,.32c-.83-1.9-2.09-3.5-3.91-4.53v.91c.99-.41,1.98-1.09,3.07-1.19s2.34,.29,3.27,.91c.86,.58,1.53,1.4,2.03,2.3,.62,1.12,1.05,2.31,.63,3.59-.2,.59,.71,1.01,.91,.4Z" fill="#002346"></path>
          <path d="M439.48,33.95c2.55,2.19,1.37,6.55,.5,9.24-.66,2.08-1.47,4.18-2.59,6.05-.73,1.22-1.69,2.52-3.02,3.14s-2.64,.27-3.8-.45l.18,.33c-.03-.32-.25-.51-.5-.69-.2-.15-.53-.16-.7,.07-.79,1.13-1.86,2.08-3.3,1.53-1.31-.5-2.36-1.57-3.29-2.59-1.05-1.16-2.15-2.23-3.02-3.54-.75-1.13-1.33-2.37-1.78-3.64-.48-1.35-1.01-2.88-1.03-4.32-.01-1.54,.69-2.98,1.61-4.18,.18-.24,.57-.56,.67-.85s0-.62,0-.91c0-.76,.17-1.4,.55-2.05,.65-1.12,1.44-2.19,2.46-3.01,.96-.76,2.09-1.25,3.32-1.36,1.3-.11,3.08,.07,4.1,.94,.49,.42,1.11-.35,.62-.76-1.06-.9-2.7-1.16-4.06-1.19-1.26-.02-2.5,.29-3.6,.92-1.22,.69-2.21,1.73-3,2.87-.42,.61-.89,1.28-1.13,2-.26,.77-.26,1.59-.19,2.39l.1-.36c-1.33,1.53-2.41,3.37-2.42,5.45,0,.99,.27,1.96,.52,2.91,.28,1.03,.61,2.04,1.03,3.02,.77,1.79,1.85,3.41,3.16,4.86s2.77,3.21,4.61,4.11c.75,.37,1.6,.57,2.42,.35,1.06-.27,1.85-1.11,2.46-1.97l-.7,.07c.42,.3,.01-.07,.15,.08,.07,.08,.08,.19,.17,.27,.12,.12,.31,.19,.46,.28,.36,.2,.73,.37,1.13,.49,.64,.2,1.32,.29,1.98,.2,1.53-.21,2.77-1.24,3.71-2.42,1.47-1.85,2.41-4.11,3.21-6.31s1.5-4.57,1.52-6.94c.01-1.8-.46-3.59-1.86-4.79-.49-.42-1.1,.34-.62,.76h0Z" fill="#002346"></path>
          <path d="M427.58,45.23c.15,1.42,.37,2.83,.75,4.21,.27,.99,.64,1.96,1.22,2.81,.36,.53,1.16-.03,.8-.57-.53-.78-.84-1.69-1.09-2.59-.36-1.29-.54-2.63-.68-3.96-.07-.63-1.05-.55-.99,.09h0Z" fill="#002346"></path>
          <path d="M428.48,35.1c-1.06,3.28-1.32,6.71-.91,10.12,.08,.63,1.06,.55,.99-.09-.39-3.24-.17-6.51,.83-9.63,.19-.59-.72-1.01-.91-.4h0Z" fill="#002346"></path>
          <path d="M428.55,34.84c-.03,.13-.07,.26-.1,.38-.01,.06,0,.13,.01,.19,.01,.06,.04,.12,.08,.18,.04,.06,.09,.1,.15,.13,.05,.04,.11,.06,.18,.07h.13c.09,0,.16-.03,.24-.08l.1-.09c.06-.07,.09-.15,.1-.23,.03-.13,.07-.25,.1-.38,.01-.06,0-.13-.01-.19-.01-.06-.04-.12-.08-.18-.04-.06-.09-.1-.15-.13-.05-.04-.11-.06-.18-.07h-.13c-.09,0-.16,.03-.24,.08l-.1,.09c-.06,.07-.09,.15-.1,.23h0Z" fill="#002346"></path>
          <path d="M429.35,34.54c-1.66-1.54-3.71-3.18-6.05-3.42-.86-.09-1.74,.02-2.54,.39-.41,.19-.79,.42-1.15,.7-.19,.15-.41,.32-.56,.51-.19,.24-.32,.56-.49,.82-.34,.52,.43,1.16,.78,.63,.27-.42,.47-.83,.86-1.15,.3-.24,.62-.45,.97-.61,.7-.31,1.46-.4,2.22-.29,2.08,.31,3.86,1.79,5.34,3.17,.47,.44,1.08-.32,.62-.76h0Z" fill="#002346"></path>
          <path d="M433.71,31.06c-.7,.06-1.4,.19-2.05,.46-.29,.12-.58,.27-.84,.44-.3,.2-.52,.44-.74,.73-.36,.46-.72,.93-1.07,1.4-.14,.18-.35,.41-.43,.63-.09,.25,0,.54,.26,.65,.23,.1,.56,0,.65-.25,.03-.08-.02,.03-.03,.05,.03-.03,.05-.08,.08-.11,.08-.12,.16-.23,.25-.34,.32-.43,.64-.85,.96-1.27,.18-.24,.33-.46,.58-.63,.22-.15,.45-.28,.69-.38,.58-.24,1.19-.35,1.8-.4s.52-1.04-.11-.98h0Z" fill="#002346"></path>
        </g>
      </g>
    </g>
    <g>
      <g id="z">
        <path d="M414.53,108.04c.04,.08,.11,.19,.2,.34,1.48,2.91,3.6,5.44,6.37,7.6,2.48,2.02,4.52,3.18,6.12,3.47,.27-.06,.43-.05,.47,.03,4.31-.97,4.89-4.9,1.72-11.8-2.59-5.72-5.33-8.45-8.23-8.19-.48-.13-1.06,0-1.75,.4-1.69,.77-3,1.58-3.93,2.42-.85,.99-1.3,1.97-1.36,2.92,.23,1.8,.36,2.74,.41,2.81m-7.89,6.38c.18,2.94,1.21,4.99,3.09,6.14,2.09,1.33,3.97,2.22,5.66,2.67,1.49,.46,3.39,.68,5.71,.66,2.21,.14,3.86-.09,4.92-.71,1.14-.66,1.54-1.91,1.2-3.74-1.59-.3-3.63-1.46-6.12-3.47-2.77-2.16-4.89-4.69-6.37-7.6-.09-.15-.15-.27-.2-.34-5.39,.17-8.1,1.98-8.12,5.45,.1,.35,.18,.66,.23,.93m3.27-12.55c-.2,.01-.43,.05-.7,.1-4.18,1.91-5.59,5.26-4.24,10.06,.17,.82,.73,1.61,1.68,2.38-.06-.27-.13-.58-.23-.93,.03-3.47,2.74-5.29,8.12-5.45-.04-.08-.18-1.01-.41-2.81,.06-.95,.52-1.92,1.36-2.92-1.98-.79-3.84-.93-5.58-.43m.71-1.93c-.13,.48-.37,1.13-.71,1.93,1.74-.5,3.6-.35,5.58,.43,.93-.85,2.24-1.65,3.93-2.42,.69-.39,1.27-.53,1.75-.4-.5-1.03-1.37-1.75-2.61-2.15-1.93-.71-3.67-.72-5.2-.04-1.38,.6-2.29,1.48-2.74,2.65Z" fill="#fbe493"></path>
      </g>
      <g id="aa">
        <g>
          <path d="M421.52,99.5c-1.22-2.43-4.54-3.36-7.07-2.93-1.26,.22-2.54,.85-3.42,1.79s-1.13,2.24-1.62,3.4c-.15,.35,.33,.74,.65,.65,1.76-.48,3.55-.27,5.24,.38,.2,.08,.36,.08,.52-.06,.7-.62,1.5-1.13,2.32-1.59,.47-.26,.96-.49,1.44-.72s.97-.52,1.52-.41c.64,.14,.56-.73,.03-.84-1.16-.25-2.29,.5-3.27,1.02s-1.96,1.15-2.82,1.91l.52-.06c-1.91-.74-3.92-1.03-5.93-.48l.65,.65c.41-.97,.62-2.1,1.27-2.93s1.73-1.46,2.79-1.74c1.23-.33,2.52-.19,3.72,.2,1.13,.36,2.08,.88,2.63,1.97,.24,.48,1.11,.38,.82-.21Z" fill="#002346"></path>
          <path d="M421.21,100.04c3.4-.25,5.59,3.61,6.91,6.18,1.02,1.99,1.96,4.09,2.47,6.28,.33,1.39,.52,2.96-.03,4.32s-1.79,2.05-3.14,2.36l.46,.12c-.28-.23-.59-.21-.93-.15-.2,.03-.27,.25-.24,.42,.23,1.32,.13,2.73-1.17,3.42-1.23,.66-2.77,.67-4.13,.62-1.65-.07-3.29-.04-4.91-.38-1.39-.28-2.72-.77-3.99-1.39s-2.82-1.35-3.79-2.45c-.9-1.01-1.34-2.31-1.55-3.63-.06-.36-.04-.75-.12-1.1s-.29-.47-.55-.71c-.61-.56-.98-1.17-1.19-1.97-.32-1.26-.53-2.55-.39-3.85s.61-2.44,1.42-3.41,2.27-2.18,3.61-2.29c.62-.05,.3-.92-.2-.87-1.39,.12-2.7,1.05-3.69,2-.88,.86-1.53,1.95-1.85,3.14-.34,1.31-.32,2.68-.09,4,.12,.72,.27,1.5,.57,2.17,.35,.79,.99,1.43,1.64,1.97l-.21-.42c.13,1.87,.57,3.79,1.8,5.26,.57,.68,1.27,1.17,2.03,1.63,1.03,.64,2.1,1.22,3.22,1.7,1.82,.78,3.74,1.23,5.72,1.37,1.22,.09,2.48,.12,3.7,.1,.94-.02,1.92-.1,2.82-.42,.78-.27,1.49-.7,1.91-1.44,.52-.93,.46-2.04,.28-3.06l-.24,.42,.02-.09c.05,.04,.11,.08,.17,.1,.1,0,.18,.04,.29,.03,.17-.01,.35-.08,.51-.13,.38-.12,.76-.26,1.11-.45,.59-.31,1.12-.75,1.5-1.29,.88-1.25,.96-2.84,.77-4.31-.3-2.37-1.27-4.66-2.28-6.8s-2.16-4.18-3.81-5.83c-1.24-1.23-2.83-2.18-4.63-2.05-.63,.05-.3,.91,.2,.87h0Z" fill="#002346"></path>
          <path d="M420.79,116.4c1.11,.9,2.26,1.75,3.51,2.46,.88,.5,1.84,.94,2.84,1.14,.64,.12,.56-.74,.03-.84-.93-.18-1.79-.58-2.61-1.05-1.16-.66-2.24-1.47-3.28-2.31-.49-.39-.98,.21-.49,.61h0Z" fill="#002346"></path>
          <path d="M414.26,108.61c1.56,3.06,3.83,5.68,6.53,7.8,.49,.38,.99-.22,.49-.61-2.57-2.01-4.72-4.49-6.2-7.4-.24-.47-1.11-.38-.82,.21h0Z" fill="#002346"></path>
          <path d="M414.07,108.26c.07,.11,.13,.23,.2,.34,.03,.06,.07,.11,.12,.15,.04,.05,.1,.09,.16,.12,.06,.03,.11,.05,.18,.05,.06,.01,.11,.01,.17,0l.1-.04c.06-.04,.11-.09,.13-.16l.02-.1c0-.08-.02-.15-.05-.22-.07-.11-.13-.23-.2-.34-.03-.06-.07-.11-.12-.15-.04-.05-.1-.09-.16-.12-.06-.03-.11-.05-.18-.05-.06-.01-.11-.01-.17,0l-.1,.04c-.06,.04-.11,.09-.13,.16l-.02,.1c0,.08,.02,.15,.05,.22h0Z" fill="#002346"></path>
          <path d="M414.37,107.72c-3,.1-7.12,.7-8.21,4.02-.12,.37-.2,.76-.24,1.15-.02,.21-.05,.44-.03,.65,.04,.33,.17,.66,.24,.99,.1,.49,1.03,.63,.9,.02-.07-.32-.21-.67-.22-.99,0-.19,.02-.39,.05-.59,.05-.38,.15-.75,.3-1.1,.29-.69,.78-1.28,1.38-1.72,1.7-1.24,3.99-1.48,6.03-1.55,.63-.02,.3-.89-.2-.87h0Z" fill="#002346"></path>
          <path d="M415.04,102.11c-.47,.56-.89,1.18-1.15,1.86-.11,.29-.19,.58-.24,.89-.06,.36,0,.7,.04,1.06,.07,.55,.14,1.09,.22,1.63,.03,.23,.05,.49,.15,.71s.38,.39,.62,.32,.3-.32,.2-.53c0,.02,.03,.14,.02,.04,0-.04-.02-.08-.02-.12-.03-.13-.05-.27-.07-.41-.07-.48-.13-.96-.2-1.44-.04-.3-.11-.61-.06-.91,.04-.27,.12-.54,.22-.8,.24-.62,.62-1.17,1.05-1.68,.33-.4-.44-1.03-.78-.63h0Z" fill="#002346"></path>
        </g>
      </g>
    </g>
    <g>
      <g id="ab">
        <path d="M447.23,101.57c-3.77,4.24-5.79,9.87-6.07,16.89,3.22-6.95,8.36-12.32,15.43-16.09-7.07,3.78-12.21,9.14-15.43,16.09,6.26-.62,11.62-2.68,16.09-6.2,4.57-3.52,6.86-7.08,6.86-10.69,.17-4.13-1.63-6.2-5.41-6.2-3.78,0-7.61,2.06-11.48,6.2Z" fill="#7cd295"></path>
      </g>
      <g id="ac">
        <g>
          <path d="M458.8,95.78c1.96,.02,3.82,.65,4.5,2.64s.42,4.61-.44,6.6c-1.11,2.56-3.17,4.65-5.3,6.39s-4.58,3.23-7.17,4.31c-3.01,1.26-6.22,1.98-9.47,2.31l.67,.54c.17-4.13,.97-8.26,2.85-11.97s4.86-6.92,8.37-9.02c1.82-1.09,3.85-1.79,5.98-1.8,.62,0,.25-.85-.22-.85-4.2,.03-7.81,2.45-10.69,5.33s-5,6.54-6.1,10.56c-.67,2.44-.99,4.96-1.1,7.49-.01,.34,.37,.57,.67,.54,6.22-.63,12.16-2.83,17.01-6.84,2.26-1.86,4.39-4.09,5.49-6.85,.84-2.11,1.05-4.81,.22-6.96-.9-2.33-3.14-3.26-5.51-3.28-.62,0-.25,.84,.22,.85Z" fill="#002346"></path>
          <path d="M456.26,101.97c-6.82,3.66-12.28,9.21-15.56,16.24-.2,.42,.65,.94,.87,.46,3.22-6.91,8.61-12.34,15.31-15.94,.46-.25-.21-.98-.63-.76h0Z" fill="#002346"></path>
        </g>
      </g>
    </g>
    <g>
      <g id="ad">
        <path d="M425.07,75.58c4.23,2.49,7.32,6.63,9.26,12.42-4.41-4.99-10-8.19-16.78-9.61,6.78,1.42,12.37,4.63,16.78,9.61-5.35,1.02-10.35,.62-15.02-1.19-4.59-1.83-7.33-4.24-8.21-7.24-1.16-3.4-.16-5.56,2.98-6.48,3.15-.93,6.81-.1,10.99,2.49Z" fill="#7cd295"></path>
      </g>
      <g id="ae">
        <g>
          <path d="M434.72,88.04c-1.36-4.02-3.47-7.84-6.68-10.68-1.65-1.46-3.6-2.65-5.6-3.57s-4.05-1.52-6.21-1.48c-1.71,.03-3.67,.49-4.93,1.72-1.2,1.17-1.29,2.88-.94,4.42,.88,3.92,3.93,6.43,7.44,8.06,5.25,2.44,11.09,2.92,16.74,1.86,.52-.1-.09-.86-.47-.79-4.67,.87-9.47,.71-13.98-.86-3.34-1.16-7.2-3.17-8.47-6.72-.51-1.43-.94-3.18-.13-4.59s2.52-2,4.03-2.22c4-.58,8.22,1.54,11.29,3.94,3.48,2.73,5.69,6.66,7.09,10.8,.13,.38,1.02,.67,.83,.1Z" fill="#002346"></path>
          <path d="M434.6,87.84c-4.55-5.11-10.54-8.43-17.21-9.86-.23-.05-.32,.16-.28,.34,.05,.24,.33,.4,.55,.44,6.34,1.35,12.03,4.52,16.35,9.37,.35,.39,1.03,.19,.59-.3h0Z" fill="#002346"></path>
        </g>
      </g>
    </g>
    <g>
      <g id="af">
        <path d="M348.97,207.85c-21.39-8.3-50.5-11.67-87.33-10.12,8.03-4.17,12.45-6.43,13.26-6.77,24.27-10.15,47.88-11.33,70.82-3.54,23.5,7.82,41.34,26.3,53.52,55.42-2.41-4.15-8.66-9.82-18.73-17.02-11.46-8.24-21.97-14.23-31.55-17.97m1.47,9.36c-17.69-6.59-33.44-10.32-47.25-11.2-13.69-.93-23.34-1.92-28.94-2.97-5.53-1.22-9.74-2.99-12.61-5.32,36.83-1.55,65.93,1.83,87.33,10.12,9.57,3.74,20.09,9.73,31.55,17.97,10.07,7.19,16.31,12.87,18.73,17.02,.63,1.5,1.26,3,1.88,4.51-12.7-12.2-29.6-22.24-50.68-30.13Z" fill="#7cd295"></path>
      </g>
      <g id="ag">
        <g>
          <path d="M401.67,247.39c-.63-1.5-1.26-3-1.88-4.51-.09-.22-.3-.42-.55-.44-.2-.02-.37,.14-.28,.35,.63,1.5,1.26,3,1.88,4.51,.09,.22,.3,.42,.55,.44,.2,.02,.37-.14,.28-.35h0Z" fill="#002346"></path>
          <path d="M401.45,247.1c-6.76-6.48-14.36-12.04-22.41-16.82-9.12-5.41-18.82-9.84-28.76-13.54s-21.01-7.1-31.89-9.16c-4.69-.89-9.42-1.55-14.18-1.9-5.34-.39-10.67-.75-16-1.26-3.81-.36-7.62-.76-11.41-1.35-4.26-.66-8.56-1.78-12.34-3.92-.88-.5-1.71-1.05-2.5-1.68l.03,.64c11.35-.47,22.73-.53,34.07,.09,9.67,.53,19.33,1.54,28.86,3.32,8.12,1.52,16.15,3.61,23.86,6.57,9.77,3.75,18.89,9.16,27.5,15.06,4.65,3.19,9.24,6.51,13.57,10.12,2.89,2.42,5.79,4.98,8.06,8.01,.39,.51,.74,1.05,1.07,1.6,.16,.28,1.01,.53,.78,0-4.28-10.21-9.6-20.03-16.44-28.77-5.95-7.6-13.07-14.29-21.27-19.43-9.06-5.68-19.33-9.25-29.82-11.19-12.72-2.36-25.83-1.94-38.44,.92-6.52,1.48-13.04,3.51-19.17,6.2-3.05,1.34-5.99,3.01-8.94,4.53-1.42,.74-2.84,1.47-4.26,2.21-.41,.21,.28,.93,.64,.74,4.05-2.1,8.08-4.23,12.17-6.25,1.68-.83,3.45-1.49,5.2-2.15,3.24-1.22,6.54-2.31,9.88-3.24,12.35-3.43,25.28-4.6,38.01-2.97,10.87,1.39,21.74,4.59,31.34,9.95,8.28,4.63,15.56,10.87,21.7,18.09,6.93,8.16,12.41,17.48,16.81,27.22,.61,1.34,1.19,2.69,1.76,4.05h.78c-1.67-2.85-4.11-5.23-6.52-7.44-3.92-3.58-8.18-6.77-12.48-9.86-8.9-6.38-18.25-12.26-28.31-16.63-7.71-3.35-15.85-5.67-24.06-7.39-9.42-1.98-19-3.14-28.6-3.8-11.19-.77-22.42-.85-33.63-.5-1.53,.05-3.06,.11-4.59,.17-.39,.02-.11,.52,.03,.64,6.28,5.03,14.84,5.96,22.57,6.81,4.87,.53,9.74,.94,14.62,1.3s10.04,.7,15.03,1.47c10.69,1.63,21.16,4.54,31.37,8.09s20.55,7.9,30.16,13.25c8.31,4.63,16.21,10.05,23.28,16.42,.83,.75,1.64,1.51,2.45,2.28,.45,.43,.84-.08,.4-.49h0Z" fill="#002346"></path>
          <path d="M401.67,247.39c-.25-.83-.53-1.65-.84-2.46s-.65-1.56-1.17-2.25c-.12-.16-.42-.32-.62-.21-.22,.12-.08,.38,.03,.52,.45,.6,.72,1.29,.98,1.99,.29,.76,.54,1.54,.78,2.32,.07,.22,.32,.42,.55,.44s.35-.14,.28-.35h0Z" fill="#002346"></path>
        </g>
      </g>
    </g>
    <g>
      <g id="ah">
        <path d="M574.94,104.68c3.95-2.67,6.68-5.35,8.19-8.03-28.99,10.71-50.41,22.74-64.28,36.08-6.2,5.99-12.39,14.02-18.59,24.1-5.47,8.86-8.51,15.27-9.14,19.22,.06,1.35,.12,2.72,.16,4.1,5.88-13.52,15.7-26.75,29.46-39.7,11.54-10.83,22.47-18.81,32.77-23.95,10.42-5.11,17.57-9.05,21.43-11.82m-56.08,28.04c13.86-13.34,35.29-25.36,64.28-36.08-7.56-.63-11.71-.94-12.45-.94-22.06,0-40.7,6.72-55.93,20.16-15.69,13.69-23.57,33.75-23.63,60.18,.62-3.95,3.67-10.36,9.14-19.22,6.2-10.08,12.39-18.12,18.59-24.1Z" fill="#7cd295"></path>
      </g>
      <g id="ai">
        <g>
          <path d="M491.73,180.06c-.04-1.36-.07-2.73-.08-4.1,0-.27-.3-.47-.55-.44-.29,.03-.44,.27-.44,.54,.01,1.37,.04,2.73,.08,4.1,0,.27,.3,.47,.55,.44,.28-.03,.45-.27,.44-.54h0Z" fill="#002346"></path>
          <path d="M491.69,180.31c3.27-7.48,7.55-14.48,12.48-20.98,5.62-7.41,12.05-14.18,18.91-20.45,6.62-6.05,13.63-11.73,21.19-16.57,6.93-4.43,14.45-7.75,21.68-11.65,5.79-3.13,12.12-6.48,16.22-11.78,.51-.65,.96-1.34,1.37-2.06,.22-.38-.27-.8-.64-.67-9,3.33-17.89,7-26.53,11.18-7.37,3.57-14.58,7.51-21.43,12.02-5.8,3.82-11.35,8.06-16.37,12.87-6.43,6.16-11.8,13.39-16.61,20.85-2.58,4-5.06,8.08-7.26,12.31-1.48,2.85-2.9,5.8-3.71,8.92-.14,.54-.26,1.09-.34,1.64l.99,.03c.01-9.77,1.08-19.62,3.92-29,2.48-8.2,6.35-15.97,11.71-22.67,5.63-7.03,12.83-12.87,20.61-17.37,8.35-4.83,17.59-8,27.1-9.54,5.05-.82,10.16-1.21,15.28-1.23,.5,0,.61,0,1.12,.03s1.07,.07,1.61,.11c1.96,.14,3.91,.3,5.87,.46,1.38,.11,2.77,.23,4.15,.34,.64,.05,.78-.92,.14-.98-3.91-.33-7.83-.69-11.75-.92-1.75-.1-3.51-.01-5.26,.06-2.6,.11-5.2,.32-7.79,.64-9.75,1.2-19.3,4-28.02,8.55-8.2,4.28-15.84,10.02-21.96,16.98-5.68,6.45-9.94,14.05-12.75,22.15-3.19,9.16-4.61,18.85-4.9,28.52-.04,1.32-.06,2.63-.06,3.95,0,.57,.9,.58,.99,.03,.41-2.75,1.58-5.39,2.77-7.88,1.95-4.09,4.26-8,6.64-11.84,4.77-7.68,10.07-15.12,16.38-21.62,4.84-4.97,10.33-9.31,16.05-13.22,6.58-4.5,13.53-8.44,20.65-12,8.34-4.17,16.93-7.83,25.64-11.15,1.16-.44,2.32-.88,3.48-1.31l-.64-.67c-1.93,3.4-5.15,6.02-8.34,8.18-2.32,1.57-4.76,2.97-7.22,4.33-3.58,1.98-7.22,3.85-10.88,5.68s-7.2,3.63-10.65,5.74c-7.52,4.61-14.48,10.08-21.06,15.94-6.97,6.21-13.55,12.89-19.36,20.21-5.11,6.43-9.62,13.37-13.15,20.8-.41,.87-.81,1.74-1.19,2.62-.25,.58,.66,.99,.91,.4h0Z" fill="#002346"></path>
          <path d="M491.73,180.06c-.13-1.32-.23-2.65-.08-3.97,.07-.63-.91-.8-.98-.16-.16,1.4-.06,2.82,.08,4.22,.06,.63,1.05,.54,.99-.1h0Z" fill="#002346"></path>
        </g>
      </g>
    </g>
    <g>
      <g id="aj">
        <path d="M312.99,66.14c-2.71,.05-4.09,2.33-4.15,6.87,.09,3.11,.41,8.09,.97,14.95,.55,6.86,4.16,12.79,10.84,17.82,6.63,5.17,16.1,9.25,28.41,12.24-5.06,.19-10.57,.17-16.53-.03-6.35-.16-11.81,.77-16.36,2.78-4.69,1.98-9.15,7.84-13.38,17.58-4.32,9.79-5.13,15.7-2.44,17.73,2.71,1.96,8.03,3.42,15.94,4.39,7.82,1.02,13.81,.23,17.98-2.35,4.12-2.44,10.91-13.23,20.35-32.36,2.05,11.34,4.91,20.09,8.58,26.24,2.97,5.03,7.96,8.69,14.99,10.95,7.02,2.27,12.13,3.91,15.33,4.92,3.22,.94,5.36-4.04,6.43-14.93,1.12-10.8-1.31-18.55-7.3-23.24-6.17-4.58-17.55-8.13-34.15-10.65,14.41-3.15,24.58-6.13,30.5-8.94,5.75-2.77,8.67-7.31,8.74-13.62,.14-6.28,.4-12.15,.78-17.6,.37-2.52-.55-4-2.74-4.44-6.97-1.02-13.59-1.37-19.84-1.04-6.42,.36-11.19,4.21-14.31,11.54-3.12,7.33-5.89,16.65-8.3,27.96-.97-13.06-2.99-23.23-6.04-30.53-3-7.21-7.15-11.71-12.45-13.51-5-1.49-12.27-2.4-21.82-2.73Z" fill="#f69074"></path>
      </g>
      <g id="ak">
        <path d="M334,157.71c-2.81,1.73-6.1,2.44-9.36,2.64-4.27,.27-8.58-.29-12.79-1.01-3.19-.54-6.48-1.21-9.43-2.61-.82-.39-1.77-.83-2.32-1.58-.52-.7-.7-1.58-.77-2.43-.23-2.97,.81-6.07,1.79-8.82,1.45-4.1,3.25-8.13,5.37-11.93,1.63-2.93,3.54-5.81,6-8.11,2.2-2.06,4.86-3.2,7.72-4.02,3.98-1.14,8.18-1.49,12.31-1.39,4.51,.12,9.02,.22,13.53,.13,1.04-.02,2.07-.05,3.11-.09,.6-.02,.46-.82-.02-.94-9.66-2.36-19.57-5.65-27.61-11.7-3.98-3-7.55-6.58-9.56-11.22-.89-2.07-1.44-4.28-1.64-6.52-.25-2.8-.44-5.61-.63-8.42-.13-1.98-.25-3.96-.33-5.94s0-4.25,1.17-5.84c1.32-1.81,3.74-1.25,5.68-1.15,2.75,.14,5.49,.34,8.22,.65,2.28,.26,4.55,.59,6.8,1.05,1.89,.39,3.77,.84,5.5,1.72,4.08,2.07,6.96,5.86,8.98,9.88s3.3,8.29,4.29,12.61c1.2,5.19,1.94,10.48,2.46,15.78,.15,1.5,.28,3,.39,4.5,.04,.54,.85,.59,.96,.06,2.04-9.56,4.48-19.24,8.43-28.21,1.63-3.7,4.05-7.21,7.65-9.21,1.63-.9,3.45-1.44,5.3-1.63,2.5-.26,5.06-.22,7.57-.16,2.83,.06,5.65,.26,8.46,.56,1.42,.15,2.84,.32,4.26,.54,.86,.13,1.73,.44,2.22,1.21s.45,1.73,.36,2.61c-.13,1.26-.18,2.54-.25,3.81-.16,2.72-.28,5.45-.38,8.17-.16,4.47,.28,9.25-2.09,13.25-1.93,3.27-5.15,5.19-8.57,6.62s-6.75,2.48-10.19,3.49c-4.67,1.36-9.39,2.54-14.13,3.63-1.37,.32-2.75,.62-4.13,.92-.51,.11-.28,.85,.14,.92,5.68,.87,11.34,1.92,16.9,3.38,4.14,1.09,8.25,2.41,12.11,4.27,3.24,1.56,6.22,3.52,8.35,6.48,2.6,3.63,3.65,8.09,3.88,12.5,.14,2.78-.08,5.56-.39,8.32-.29,2.53-.65,5.07-1.32,7.53-.4,1.49-.89,3.08-1.83,4.33-.54,.71-1.29,1.3-2.22,1.16-.72-.11-1.44-.42-2.13-.64-.96-.31-1.92-.61-2.88-.92-2.46-.79-4.93-1.58-7.39-2.38-2.73-.88-5.47-1.71-8.05-2.98-2.19-1.08-4.25-2.42-6.05-4.07-3.24-2.98-5.27-6.98-6.92-11.01-2.02-4.92-3.42-10.09-4.53-15.29-.32-1.48-.61-2.97-.88-4.46-.08-.45-.71-.62-.93-.18-3.1,6.27-6.29,12.5-9.82,18.54-2.19,3.75-4.49,7.55-7.34,10.85-.89,1.03-1.86,2.06-3.05,2.77-.52,.31,.1,1.1,.6,.8,1.05-.63,1.95-1.52,2.77-2.42,1.22-1.34,2.31-2.81,3.34-4.3,3.16-4.56,5.88-9.44,8.5-14.33,2.03-3.8,3.98-7.64,5.89-11.5l-.93-.18c1.04,5.74,2.37,11.46,4.32,16.97,1.51,4.26,3.37,8.74,6.29,12.25,3.23,3.89,7.72,6.47,12.46,8.1s9.99,3.23,14.98,4.82c1.15,.37,2.25,.8,3.4,.2s1.8-1.77,2.3-2.87c.85-1.87,1.3-3.92,1.68-5.93,.53-2.85,.88-5.75,1.05-8.65,.28-4.86-.14-9.94-2.22-14.41-1.67-3.59-4.35-6.4-7.73-8.43s-7.35-3.54-11.23-4.74c-5.31-1.65-10.76-2.81-16.24-3.77-1.55-.27-3.11-.52-4.66-.76l.14,.92c5.29-1.16,10.56-2.4,15.77-3.84,3.84-1.06,7.66-2.22,11.37-3.66,3.42-1.33,6.8-2.94,9.17-5.85,1.23-1.51,2.12-3.29,2.62-5.17,.62-2.33,.58-4.7,.65-7.1,.08-2.86,.19-5.73,.34-8.59,.07-1.38,.15-2.76,.23-4.13,.07-1.18,.28-2.39,.21-3.57-.1-1.82-1.25-3.12-3.01-3.54-1.41-.34-2.93-.43-4.38-.58s-2.86-.29-4.29-.39c-2.8-.2-5.61-.28-8.41-.24-2.25,.04-4.51,.08-6.69,.7-3.85,1.11-6.92,3.84-9.03,7.19-1.21,1.92-2.11,4-2.95,6.11s-1.62,4.29-2.33,6.47c-1.65,5.02-3.01,10.14-4.2,15.29-.33,1.41-.64,2.82-.94,4.23l.96,.06c-.44-5.87-1.11-11.74-2.26-17.52-.88-4.42-2.03-8.82-3.76-12.99-1.86-4.47-4.5-8.88-8.52-11.73-3.45-2.45-7.65-3.19-11.76-3.79-2.67-.39-5.35-.65-8.04-.84-1.53-.11-3.06-.19-4.59-.26-1.1-.05-2.28-.22-3.34,.17-1.66,.6-2.46,2.24-2.84,3.86-.46,2.01-.31,4.08-.2,6.12,.13,2.45,.3,4.9,.48,7.34,.2,2.74,.27,5.55,.93,8.23,1.18,4.78,3.98,8.9,7.55,12.23,7.48,6.96,17.4,10.88,27.09,13.61,1.48,.42,2.96,.8,4.45,1.16l-.02-.94c-4.61,.17-9.22,.16-13.83,.05s-8.87-.13-13.26,.82c-3.14,.68-6.41,1.72-8.97,3.73s-4.56,4.72-6.25,7.49c-2.34,3.84-4.24,7.97-5.86,12.16-1.2,3.1-2.4,6.47-2.49,9.83-.05,1.97,.39,3.93,2.13,5.06,2.49,1.62,5.52,2.4,8.39,3.03,4.27,.92,8.71,1.57,13.09,1.64,3.6,.06,7.33-.34,10.64-1.81,.68-.3,1.35-.65,1.98-1.04,.52-.32-.1-1.1-.6-.8Z" fill="#002346"></path>
      </g>
    </g>
    <g id="al">
      <g>
        <path d="M335.1,145.28c4.43-5.9,8.85-11.81,13.12-17.83,.81-1.14,1.62-2.29,2.41-3.45,.36-.53-.41-1.16-.78-.63-3.55,5.18-7.29,10.23-11.04,15.27-1.49,2.01-2.99,4.01-4.49,6.01-.38,.51,.39,1.14,.78,.63h0Z" fill="#002346"></path>
        <path d="M322.45,142.58c6.23-4.96,12.62-9.74,18.99-14.52,2.67-2,5.34-4,8.02-6,.51-.38-.07-1.2-.58-.81-7.74,5.77-15.48,11.55-23.12,17.46-1.3,1.01-2.6,2.02-3.89,3.05-.5,.4,.08,1.21,.58,.81h0Z" fill="#002346"></path>
        <path d="M330.12,126.52c6-1.15,11.91-2.79,17.76-4.55,.62-.19,.26-1.12-.35-.93-5.77,1.73-11.59,3.36-17.51,4.49-.63,.12-.52,1.11,.11,.99h0Z" fill="#002346"></path>
        <path d="M359.82,121.33c.96,.44,1.87,.99,2.78,1.51,1.77,1.01,3.52,2.04,5.27,3.09,4.01,2.4,8.1,4.67,12.24,6.85,.57,.3,.96-.61,.4-.91-4.13-2.19-8.22-4.46-12.24-6.85-1.75-1.04-3.5-2.08-5.27-3.09-.91-.52-1.82-1.07-2.78-1.51-.58-.27-.98,.64-.4,.91h0Z" fill="#002346"></path>
        <path d="M368.22,145.32c-2.04-3.96-4.11-7.9-6.28-11.79-1.44-2.58-2.9-5.15-4.54-7.61-.56-.85-1.14-1.69-1.8-2.47-.41-.49-1.23,.09-.81,.58,1.34,1.59,2.44,3.41,3.51,5.18,1.85,3.06,3.57,6.2,5.26,9.36,1.26,2.35,2.5,4.72,3.72,7.09,.29,.57,1.23,.22,.93-.35h0Z" fill="#002346"></path>
        <path d="M356.01,121.66c4.77,4.83,9.68,9.52,14.54,14.26,2.63,2.57,5.27,5.14,7.91,7.71,.46,.45,1.08-.33,.63-.77-6.82-6.65-13.66-13.29-20.44-19.98-.67-.66-1.34-1.32-2-1.99-.45-.46-1.07,.32-.63,.77h0Z" fill="#002346"></path>
        <path d="M351.33,110.84c-1.01-2.01-1.86-4.11-2.71-6.19-1.45-3.58-2.83-7.19-4.19-10.81-.23-.6-1.16-.25-.93,.35,1.36,3.62,2.73,7.23,4.19,10.81,.85,2.08,1.69,4.18,2.71,6.19,.29,.57,1.22,.22,.93-.35h0Z" fill="#002346"></path>
        <path d="M330.78,104.49c4.34,2.82,8.68,5.63,13.02,8.45,.62,.4,1.24,.8,1.85,1.2,.53,.35,1.17-.42,.63-.77-4.34-2.82-8.68-5.63-13.02-8.45-.62-.4-1.24-.8-1.85-1.2-.53-.35-1.17,.42-.63,.77h0Z" fill="#002346"></path>
        <path d="M349.83,113.51c-.62-.48-1.13-1.12-1.63-1.72-.95-1.15-1.85-2.35-2.73-3.56-2.94-4.01-5.74-8.11-8.45-12.28-1.45-2.23-2.91-4.44-4.41-6.63-.36-.53-1.17,.05-.81,.58,5.08,7.43,9.71,15.24,15.4,22.25,.61,.75,1.23,1.55,2,2.15,.51,.39,1.14-.38,.63-.77h0Z" fill="#002346"></path>
        <path d="M355.31,114.04c2.49-1.87,4.74-4.08,6.91-6.31,3.24-3.33,6.32-6.83,9.33-10.37,1.65-1.95,3.29-3.9,4.91-5.87,.41-.5-.37-1.13-.78-.63-2.98,3.63-6.01,7.23-9.13,10.73-2.65,2.97-5.35,5.9-8.27,8.61-1.14,1.06-2.31,2.09-3.56,3.02-.51,.39,.07,1.2,.58,.81h0Z" fill="#002346"></path>
        <path d="M358.5,116.03c2.32-.85,4.51-2.07,6.65-3.28,3.52-1.99,6.95-4.13,10.36-6.31,2.54-1.63,5.06-3.28,7.57-4.96,.54-.36-.05-1.17-.58-.81-4.1,2.73-8.23,5.43-12.43,8.01-2.84,1.75-5.71,3.47-8.68,4.97-1.05,.53-2.13,1.04-3.24,1.45-.6,.22-.25,1.16,.35,.93h0Z" fill="#002346"></path>
      </g>
    </g>
    <g>
      <g id="am">
        <path d="M351.44,128.09c2.59,.69,5.02,.38,7.3-.93,2.28-1.32,3.77-3.27,4.46-5.86,.71-2.66,.4-5.1-.93-7.3-1.3-2.35-3.24-3.87-5.83-4.57s-5.07-.36-7.44,1.01c-2.19,1.26-3.64,3.23-4.35,5.89-.69,2.59-.42,5.01,.83,7.28,1.39,2.3,3.38,3.8,5.97,4.49Z" fill="#fff"></path>
      </g>
      <g id="an">
        <path d="M356.46,109.93c3.56,.99,6.36,4.18,6.66,7.92s-1.55,7.26-4.76,9.07c-3.45,1.94-7.94,1.4-10.84-1.31s-3.43-7.13-1.77-10.75c1.84-4.03,6.48-6.02,10.71-4.93,.63,.16,.53-.7,.02-.83-4.08-1.05-8.68,.46-10.96,4.11s-2.24,8.58,.57,11.97c2.63,3.18,7.28,4.64,11.21,3.26,3.97-1.4,6.56-5.02,6.75-9.21,.21-4.67-3.15-8.91-7.57-10.14-.63-.17-.52,.69-.02,.83Z" fill="#002346"></path>
      </g>
    </g>
    <g>
      <g id="ao">
        <path d="M544.12,154.11c-5.53-4.31-11.09-7.87-16.68-10.69-5.81-2.95-11.88-2.03-18.19,2.75-6.36,4.86-13.4,11.61-21.13,20.25,5.64-11.88,8.99-21.72,10.05-29.54,1.02-7.74-.34-13.75-4.06-18.03-3.64-3.73-9.46-8.15-17.46-13.28-2.45-1.21-4.83,.1-7.15,3.94-1.51,2.79-3.69,7.27-6.54,13.44-2.97,6.2-2.82,13.15,.46,20.83,3.12,7.79,9.26,16.06,18.43,24.8-4.43-2.35-9.19-5.1-14.28-8.24-5.47-3.36-10.66-5.29-15.55-5.78-5-.65-11.81,2.17-20.42,8.47-8.66,6.38-12.29,11.08-10.89,14.12,1.35,3.12,5.21,7.07,11.58,11.86,6.25,4.83,11.83,7.13,16.72,6.91,4.81-.07,16.06-6.01,33.75-17.83-3.84,10.88-5.72,19.85-5.63,26.91,.08,5.83,2.58,11.54,7.48,17.11,4.95,5.5,8.55,9.46,10.81,11.88,2.33,2.46,6.71-.8,13.12-9.79,6.28-8.76,7.99-16.66,5.15-23.69-3.05-7.04-11.07-15.83-24.07-26.38,14.03,4.55,24.3,7.07,30.81,7.58,6.39,.54,11.19-1.97,14.4-7.53,3.27-5.32,6.43-10.25,9.46-14.8,1.54-1.96,1.48-3.71-.16-5.27Z" fill="#f69074"></path>
      </g>
      <g id="ap">
        <path d="M448.8,195.48c-3.38,.13-6.65-.91-9.63-2.42-3.86-1.95-7.35-4.66-10.65-7.44-2.45-2.06-4.95-4.31-6.68-7.03-.47-.74-.99-1.57-1.06-2.46s.24-1.75,.62-2.53c1.29-2.59,3.63-4.7,5.78-6.56,3.3-2.85,6.88-5.43,10.63-7.66,2.92-1.74,6.04-3.31,9.36-4.1,2.93-.69,5.8-.4,8.7,.32,4.14,1.02,8,2.89,11.62,5.11s7.59,4.58,11.47,6.72c.9,.49,1.79,.98,2.7,1.46,.52,.28,.66-.27,.32-.6-7.23-6.91-14.25-14.82-18.09-24.19-2.04-4.98-3.35-10.26-2.33-15.65,.48-2.56,1.54-4.86,2.63-7.21s2.11-4.5,3.21-6.74c.81-1.65,1.58-3.35,2.53-4.92,1.02-1.68,2.58-3.81,4.7-4.05,1.13-.13,1.98,.44,2.89,1.03,1.23,.8,2.46,1.61,3.68,2.44,2.06,1.41,4.09,2.86,6.06,4.38,3.09,2.38,6.49,4.91,8.4,8.4,2.22,4.05,2.57,8.83,2.16,13.35-.39,4.24-1.46,8.42-2.73,12.47-1.56,4.98-3.51,9.83-5.65,14.59-.6,1.33-1.21,2.65-1.83,3.97-.17,.36,.55,.85,.82,.55,6.32-7.06,13-13.93,20.5-19.75,3.71-2.88,8.12-5.19,12.95-4.79,2.3,.19,4.36,1.03,6.39,2.09,2.27,1.18,4.48,2.46,6.64,3.82,2.3,1.45,4.53,2.99,6.71,4.6,1,.74,2.32,1.47,2.92,2.6s.26,2.29-.39,3.28c-2.87,4.35-5.72,8.69-8.47,13.12-1.17,1.89-2.24,3.86-3.77,5.48-1.28,1.36-2.82,2.45-4.54,3.16-3.27,1.35-6.79,1.1-10.21,.61-8.1-1.16-16.05-3.57-23.84-6-1.27-.4-2.53-.8-3.8-1.21-.5-.16-.5,.41-.2,.65,4.33,3.51,8.55,7.17,12.5,11.11,2.98,2.98,5.86,6.13,8.27,9.6,2.07,2.97,3.8,6.18,4.26,9.83,.6,4.78-.82,9.53-3.02,13.73-1.41,2.69-3.16,5.18-5,7.59-1.41,1.85-2.89,3.68-4.57,5.3-1.23,1.19-4.22,4.04-6.05,2.33-1.22-1.14-2.31-2.49-3.43-3.73-1.67-1.83-3.33-3.66-4.99-5.5-1.95-2.16-3.93-4.28-5.53-6.72-1.43-2.17-2.61-4.51-3.36-7.01-1.28-4.29-1-8.82-.37-13.2,.74-5.15,2.08-10.2,3.66-15.15,.46-1.42,.94-2.84,1.43-4.25,.12-.33-.45-.81-.75-.61-5.81,3.88-11.68,7.67-17.74,11.14-3.78,2.16-7.67,4.31-11.79,5.75-1.28,.45-2.66,.88-4.03,.9-.61,.01-.19,.83,.25,.82,2.99-.05,5.98-1.49,8.63-2.73,5.03-2.36,9.82-5.23,14.54-8.16,3.64-2.26,7.22-4.6,10.78-6.97l-.75-.61c-1.9,5.4-3.57,10.92-4.62,16.56-.83,4.42-1.47,9.17-.73,13.64,.88,5.33,3.72,10.12,7.25,14.13,3.26,3.71,6.62,7.35,9.97,10.98,.8,.87,1.55,1.84,2.8,2,1.15,.15,2.3-.4,3.23-1.02,1.58-1.04,2.93-2.45,4.19-3.86,1.9-2.14,3.64-4.45,5.25-6.81,2.95-4.34,5.37-9.29,5.76-14.6,.3-4.1-.83-7.94-2.89-11.44s-4.61-6.58-7.33-9.51c-3.65-3.94-7.63-7.57-11.72-11.04-1.2-1.02-2.42-2.02-3.64-3.02l-.2,.65c8.61,2.79,17.36,5.51,26.3,7.01,3.37,.57,6.9,1.05,10.26,.2,3.85-.98,6.87-3.61,8.88-6.98,2.81-4.72,5.82-9.34,8.86-13.92,.65-.98,1.5-1.94,1.8-3.1,.25-.97,.07-1.96-.47-2.81-.69-1.07-1.8-1.77-2.81-2.52-1.15-.86-2.32-1.7-3.51-2.52-2.19-1.51-4.44-2.95-6.74-4.28-2.13-1.23-4.31-2.54-6.63-3.38-4.43-1.6-9.1-.86-13.18,1.35-2.11,1.14-4,2.63-5.85,4.15-1.71,1.4-3.39,2.85-5.02,4.34-3.8,3.46-7.41,7.13-10.9,10.9-.96,1.04-1.92,2.09-2.87,3.15l.82,.55c2.46-5.19,4.74-10.47,6.61-15.91,1.44-4.19,2.66-8.48,3.33-12.86,.72-4.72,.74-9.76-1.06-14.25-.74-1.85-1.79-3.73-3.2-5.16s-2.89-2.72-4.42-3.98c-1.91-1.56-3.88-3.04-5.9-4.46-1.11-.78-2.23-1.55-3.35-2.31-1.24-.83-2.48-1.78-3.8-2.49-4.05-2.18-7.04,2.76-8.57,5.73-1,1.95-1.96,3.92-2.91,5.9-1.19,2.5-2.51,5-3.49,7.59-1.89,4.99-1.7,10.42-.18,15.48,2.98,9.94,9.66,18.44,16.81,25.75,1.05,1.08,2.13,2.13,3.22,3.17l.32-.6c-4-2.13-7.92-4.38-11.8-6.73-3.93-2.37-7.81-4.7-12.22-6.09-3.02-.96-6.33-1.66-9.5-1.23s-6.32,1.8-9.18,3.33c-3.97,2.14-7.71,4.77-11.21,7.61-2.52,2.05-5.16,4.29-6.89,7.08-1.02,1.64-1.58,3.42-.72,5.25,1.24,2.65,3.45,4.84,5.56,6.8,3.22,2.98,6.76,5.79,10.51,8.08,3.13,1.92,6.61,3.49,10.29,3.9,.78,.09,1.56,.11,2.34,.08,.61-.02,.19-.84-.25-.82Z" fill="#002346"></path>
      </g>
    </g>
    <g id="aq">
      <g>
        <path d="M460.49,166.21c5.74,2.01,11.64,3.53,17.55,4.95,.63,.15,.56-.72,.04-.85-5.91-1.42-11.81-2.95-17.55-4.95-.61-.21-.53,.67-.04,.85h0Z" fill="#002346"></path>
        <path d="M471.96,147.46c2.36,4.61,4.72,9.22,7.08,13.83,.34,.66,.67,1.31,1.01,1.97,.24,.48,1.12,.37,.82-.21-2.36-4.61-4.72-9.22-7.08-13.83-.34-.66-.67-1.31-1.01-1.97-.24-.48-1.12-.37-.82,.21h0Z" fill="#002346"></path>
        <path d="M483.89,164.93c-.24-.64-.4-1.62-.52-2.39-.24-1.5-.42-3.01-.59-4.51-.55-5.01-.94-10.03-1.22-15.05-.14-2.56-.32-5.11-.57-7.66-.05-.51-.96-.64-.9-.01,.51,5.12,.67,10.26,1.1,15.39,.32,3.85,.64,7.72,1.23,11.54,.15,.98,.3,1.98,.65,2.91,.19,.51,1.05,.4,.82-.21h0Z" fill="#002346"></path>
        <path d="M485.28,174.86c1.58,6.53,3.54,12.99,5.35,19.46,1,3.55,2,7.1,3,10.65,.14,.48,1.07,.61,.9,.01-2.58-9.13-5.19-18.25-7.65-27.41-.24-.9-.49-1.8-.7-2.7-.12-.49-1.05-.62-.9-.01h0Z" fill="#002346"></path>
        <path d="M488.67,176.51c.63,.81,1.12,1.74,1.64,2.62,1.04,1.8,2.02,3.63,3.05,5.44,2.29,4.02,4.67,7.99,7.1,11.93,.28,.45,1.16,.34,.82-.21-2.47-4-4.89-8.03-7.21-12.11-1.02-1.79-1.99-3.61-3.02-5.39-.53-.91-1.05-1.86-1.69-2.7-.36-.46-1.08-.09-.68,.42h0Z" fill="#002346"></path>
        <path d="M488.4,167.95c3.1-.34,6.14-1.11,9.13-1.95,4.49-1.26,8.88-2.8,13.28-4.33,2.4-.84,4.8-1.7,7.18-2.6,.55-.21,.05-1.03-.42-.85-4.41,1.67-8.87,3.24-13.35,4.73-3.76,1.25-7.56,2.43-11.43,3.31-1.52,.34-3.05,.65-4.59,.82-.62,.07-.31,.93,.2,.88h0Z" fill="#002346"></path>
        <path d="M490.15,171.3c2.44,.41,4.95,.46,7.43,.49,4.05,.04,8.1-.09,12.15-.28,3.02-.14,6.03-.31,9.04-.49,.63-.04,.31-.91-.2-.88-4.92,.31-9.85,.57-14.79,.7-3.35,.09-6.71,.14-10.05-.04-1.18-.06-2.37-.15-3.54-.35-.64-.11-.57,.76-.04,.85h0Z" fill="#002346"></path>
        <path d="M445.87,176.37c7.88-1.3,15.82-2.28,23.74-3.27,3.3-.41,6.61-.82,9.92-1.22,.57-.07,.06-.91-.42-.85-9.61,1.16-19.23,2.33-28.81,3.73-1.62,.24-3.24,.48-4.85,.75-.57,.09-.06,.93,.42,.85h0Z" fill="#002346"></path>
        <path d="M486.54,163.3c.11-2.23,.42-4.45,.72-6.66,.53-3.81,1.14-7.6,1.78-11.39,.08-.49-.82-.82-.92-.23-.63,3.79-1.25,7.58-1.78,11.39-.31,2.21-.62,4.43-.72,6.66-.02,.5,.89,.82,.92,.23h0Z" fill="#002346"></path>
        <path d="M455.44,185c6.77-2.93,13.54-5.88,20.23-8.98,1.28-.59,2.55-1.19,3.82-1.8,.49-.24-.17-.99-.62-.77-5.66,2.74-11.42,5.27-17.18,7.8-2.29,1-4.58,2-6.87,2.99-.49,.21,.16,.97,.62,.77h0Z" fill="#002346"></path>
        <path d="M483.88,201.67c.2-4.46,.37-8.93,.42-13.4,.03-2.94,.04-5.9-.16-8.84-.07-1.02-.16-2.05-.35-3.05-.1-.5-1.02-.63-.9-.01,.39,2.05,.43,4.18,.48,6.26,.08,3.56,0,7.13-.1,10.69-.08,2.71-.19,5.41-.31,8.11-.02,.5,.89,.82,.92,.23h0Z" fill="#002346"></path>
      </g>
    </g>
    <g>
      <g id="ar">
        <path d="M484.75,181.18c2.64,0,4.9-.93,6.79-2.78,1.93-1.93,2.85-4.24,2.78-6.93,.08-2.6-.85-4.86-2.78-6.78-1.86-1.89-4.14-2.85-6.86-2.89-2.56,.04-4.81,1.03-6.74,2.96-1.88,1.86-2.83,4.1-2.83,6.74,0,2.64,.93,4.9,2.78,6.79,1.93,1.93,4.22,2.89,6.86,2.89Z" fill="#fff"></path>
      </g>
      <g id="as">
        <path d="M491.33,165.03c1.35,1.37,2.28,3.08,2.52,5.01s.03,3.81-.78,5.49c-1.67,3.5-5.43,5.53-9.25,5.17s-7.05-3.22-7.92-6.86c-.92-3.89,.7-7.72,3.95-9.97,3.63-2.51,8.4-1.9,11.48,1.17,.45,.45,.97-.22,.53-.66-2.95-2.94-7.49-3.89-11.29-2.06-1.9,.91-3.57,2.47-4.62,4.3s-1.38,3.87-1.19,5.92c.39,4.16,3.6,7.82,7.65,8.83,4.14,1.03,8.54-.66,10.89-4.23,1.29-1.96,1.68-4.22,1.53-6.53s-1.29-4.51-2.97-6.22c-.44-.45-.97,.21-.53,.66Z" fill="#002346"></path>
      </g>
    </g>
    <g>
      <g id="at">
        <path d="M363.69,153.18c-12.37-1.84-19.29-.92-20.76,2.77-1.46,3.71-1.56,10.16-.31,19.37,1.33,9.29,4.05,15.9,8.15,19.83,4.21,4.04,18.66,8.5,43.36,13.38-12.26,5.84-21.39,11.79-27.37,17.83-4.81,4.93-7.47,11.75-7.99,20.45-.45,8.68-.76,14.98-.92,18.91-.05,4.03,6.31,5,19.06,2.92,12.75-2.08,20.8-7.31,24.14-15.68,3.45-8.26,4.06-22.25,1.84-41.97,8.03,15.51,14.49,26.12,19.37,31.82,4.98,5.8,11.08,7.8,18.29,6,7.31-1.79,14.13-3.28,20.45-4.46,3-.41,4.38-1.9,4.15-4.46-.97-8.27-2.61-16.01-4.92-23.21-2.31-7.12-8.15-11.32-17.53-12.61-9.37-1.29-20.85-1.6-34.44-.92,14.65-5.13,25.61-10.51,32.9-16.14,7.41-5.61,11.25-11.76,11.53-18.45,.33-6.18-.79-14.74-3.38-25.68-.83-3.07-3.85-3.94-9.07-2.61-3.49,1.06-9.07,2.9-16.76,5.54-7.66,2.75-13.35,8.69-17.07,17.83-3.74,9.25-5.48,21.34-5.23,36.28-1.7-5.73-3.39-12.03-5.07-18.91-1.76-7.26-4.47-13.25-8.15-17.99-3.71-4.64-11.8-7.92-24.29-9.84Z" fill="#fbe493"></path>
      </g>
      <g id="au">
        <path d="M351.18,194.93c-2.74-2.65-4.51-6.15-5.73-9.72-1.63-4.8-2.36-9.89-2.82-14.92-.36-3.94-.63-8.11,.21-12.02,.23-1.08,.5-2.26,1.24-3.12,.69-.8,1.69-1.3,2.69-1.63,3.31-1.09,7.05-.9,10.48-.64,5.11,.39,10.24,1.21,15.21,2.47,3.79,.96,7.59,2.21,10.95,4.25,1.26,.76,2.46,1.66,3.48,2.72,1.32,1.36,2.39,3,3.36,4.62,2.52,4.2,4.23,8.85,5.42,13.59,1.31,5.28,2.65,10.54,4.14,15.77,.34,1.2,.69,2.4,1.04,3.59,.1,.35,.91,.72,.9,.13-.2-11.99,.59-24.54,5.08-35.8,2.06-5.15,5.02-10.07,9.34-13.63s10.15-5.21,15.57-7.05c2.33-.79,4.67-1.57,7.02-2.31s4.74-1.46,7.14-1.04c.89,.16,1.76,.52,2.35,1.23,.84,1.02,.97,2.52,1.25,3.76,.73,3.25,1.38,6.51,1.9,9.8,.44,2.77,.78,5.56,.95,8.36,.14,2.3,.22,4.67-.13,6.96-.84,5.6-4.33,10.34-8.45,14.05s-8.53,6.37-13.2,8.85c-5.58,2.96-11.42,5.44-17.33,7.67-1.69,.64-3.39,1.25-5.1,1.85-.51,.18-.1,.87,.32,.85,6.33-.31,12.68-.45,19.01-.27,5.34,.15,10.73,.45,16.02,1.28,4.57,.71,9.24,2.31,12.54,5.68,1.47,1.5,2.6,3.28,3.39,5.22,1.1,2.7,1.8,5.62,2.51,8.45,.76,3.04,1.39,6.11,1.91,9.2,.28,1.63,.52,3.27,.73,4.92,.16,1.23,.47,2.56-.04,3.75-.38,.9-1.21,1.47-2.11,1.78-1.25,.44-2.64,.56-3.94,.81-3.11,.61-6.21,1.26-9.3,1.96s-6.3,1.55-9.47,2.23c-2.54,.54-5.19,.64-7.73,.05-4.65-1.08-8.02-4.29-10.86-7.95-2.56-3.3-4.83-6.83-6.99-10.4-2.98-4.9-5.75-9.91-8.44-14.97-.78-1.46-1.54-2.93-2.31-4.4-.2-.39-.91-.5-.85,.08,.76,6.81,1.3,13.65,1.3,20.51,0,5.08-.25,10.23-1.27,15.22-.84,4.11-2.24,8.11-4.92,11.39-3.19,3.91-7.71,6.46-12.44,8.07-2.97,1.02-6.05,1.68-9.15,2.17s-6.14,.87-9.23,.94c-1.98,.04-4.06,0-5.96-.61-1.03-.33-2.08-.93-2.34-2.06-.17-.74-.04-1.57,0-2.32,.04-1.1,.08-2.19,.13-3.29,.13-3,.29-6,.45-9,.19-3.4,.27-6.82,.85-10.18,.51-2.94,1.37-5.84,2.67-8.54,2.37-4.91,6.35-8.57,10.62-11.84,5.11-3.91,10.69-7.18,16.4-10.12,1.61-.83,3.24-1.63,4.88-2.42,.39-.19-.02-.74-.3-.8-8.09-1.6-16.16-3.32-24.12-5.47-5-1.35-10.08-2.8-14.76-5.05-1.48-.71-2.98-1.51-4.18-2.65-.45-.43-.93,.17-.48,.59,1.06,1.01,2.37,1.77,3.67,2.44,1.92,.99,3.94,1.78,5.98,2.51,6.17,2.21,12.55,3.81,18.93,5.29,4.96,1.15,9.94,2.19,14.93,3.18l-.3-.8c-6.38,3.04-12.64,6.41-18.44,10.46-4.47,3.12-9.09,6.68-12.08,11.31-3.39,5.25-4.6,11.38-4.95,17.53s-.68,11.75-.86,17.63c-.04,1.34,.18,2.48,1.26,3.38,1.21,1.01,2.88,1.35,4.39,1.53,2.54,.31,5.13,.16,7.67-.08,3.37-.32,6.75-.8,10.05-1.56,5.3-1.22,10.6-3.25,14.77-6.84,3.42-2.95,5.67-6.78,6.94-11.09,1.35-4.58,1.83-9.41,2.02-14.17,.26-6.57-.08-13.17-.68-19.71-.17-1.84-.36-3.68-.56-5.52l-.85,.08c2.93,5.66,5.96,11.28,9.19,16.78,2.34,3.98,4.78,7.91,7.5,11.63,2.65,3.62,5.61,7.14,9.81,8.99,2.3,1.01,4.8,1.47,7.3,1.39,3.05-.09,6-1.01,8.95-1.71,3.26-.77,6.52-1.5,9.8-2.18,1.55-.32,3.1-.63,4.66-.93,1.25-.24,2.57-.36,3.73-.92,.83-.4,1.52-1.05,1.89-1.9,.47-1.1,.29-2.29,.15-3.44-.42-3.38-.97-6.75-1.66-10.08-.65-3.16-1.42-6.29-2.34-9.38-.7-2.37-1.42-4.72-2.76-6.81-2.46-3.85-6.34-6.34-10.64-7.7-2.54-.8-5.16-1.18-7.8-1.49s-5.39-.53-8.09-.69c-6.25-.35-12.53-.36-18.79-.16-1.75,.06-3.49,.13-5.24,.21l.32,.85c6.51-2.28,12.95-4.81,19.15-7.84,4.77-2.33,9.45-4.95,13.69-8.16,4.7-3.56,9.05-8.04,10.95-13.75,1.61-4.82,1.06-10.2,.45-15.15-.39-3.14-.92-6.26-1.55-9.36-.36-1.81-.76-3.62-1.18-5.42-.26-1.11-.52-2.17-1.31-3.03-1.51-1.65-3.93-1.76-6-1.51-2.35,.28-4.59,1.1-6.83,1.83-2.83,.93-5.65,1.89-8.47,2.86s-5.77,1.88-8.41,3.39c-4.72,2.7-8.32,6.89-10.9,11.63s-4.34,10.41-5.43,15.91c-1.28,6.41-1.8,12.96-1.9,19.5-.03,1.78-.02,3.57,0,5.35l.9,.13c-1.58-5.33-3.03-10.69-4.38-16.08s-2.63-10.15-5.06-14.86c-1.71-3.31-3.8-6.64-6.82-8.9s-6.6-3.68-10.18-4.77c-4.97-1.51-10.14-2.4-15.29-3-3.99-.46-8.22-.83-12.19-.02-2.21,.45-4.51,1.41-5.33,3.68-1.24,3.42-1.18,7.32-1,10.89,.26,5.22,.91,10.54,2.25,15.59,1.06,3.97,2.64,7.92,5.22,11.16,.54,.67,1.12,1.3,1.74,1.9,.45,.44,.92-.17,.48-.59Z" fill="#002346"></path>
      </g>
    </g>
    <g id="av">
      <g>
        <path d="M365.96,191.7c8.13,3.24,16.27,6.46,24.47,9.53,1.57,.59,3.13,1.17,4.71,1.74,.61,.22,.48-.64,0-.81-6.97-2.52-13.88-5.22-20.77-7.94-2.72-1.07-5.45-2.15-8.17-3.24-.6-.24-.78,.51-.24,.72h0Z" fill="#002346"></path>
        <path d="M365.23,176.41c7.54,5.63,14.95,11.45,22.35,17.26,3.11,2.44,6.22,4.89,9.32,7.34,.49,.38,.96-.19,.47-.58-8.96-7.07-17.93-14.14-27.01-21.07-1.55-1.18-3.1-2.36-4.66-3.53-.5-.37-.97,.2-.47,.58h0Z" fill="#002346"></path>
        <path d="M385.82,180.36c3.11,6.47,6.81,12.67,10.61,18.76,.27,.43,1.14,.37,.79-.18-3.8-6.09-7.49-12.28-10.61-18.76-.22-.46-1.08-.41-.79,.18h0Z" fill="#002346"></path>
        <path d="M400.85,212.64c-.48,2.38-1.18,4.73-1.8,7.08-1.08,4.04-2.26,8.04-3.3,12.09-.63,2.47-1.24,4.95-1.82,7.43-.11,.46,.76,.96,.87,.45,1.86-7.95,4.17-15.76,6.2-23.66,.25-.98,.51-1.95,.72-2.94,.09-.46-.77-.96-.87-.45h0Z" fill="#002346"></path>
        <path d="M376,229.48c3.87-3.53,7.72-7.1,11.48-10.75,2.46-2.39,4.9-4.81,7.17-7.37,.79-.89,1.57-1.81,2.25-2.79,.28-.41-.5-1.03-.78-.63-1.42,2.03-3.17,3.84-4.89,5.62-2.91,3.01-5.93,5.91-8.98,8.78-2.33,2.19-4.68,4.35-7.04,6.51-.35,.32,.41,.96,.78,.63h0Z" fill="#002346"></path>
        <path d="M399.36,208.4c-1.33,2.22-2.59,4.47-3.87,6.72-2.7,4.75-5.39,9.51-8.07,14.27-2.12,3.77-4.24,7.53-6.36,11.3-.24,.43,.54,1.05,.78,.63,3.45-6.14,6.91-12.28,10.38-18.42,2.07-3.67,4.15-7.34,6.25-11,.55-.96,1.1-1.92,1.67-2.87,.25-.43-.53-1.04-.78-.63h0Z" fill="#002346"></path>
        <path d="M410.13,199.65c3.72-3.21,7.74-6.09,11.69-9.01,1.81-1.34,3.63-2.67,5.46-4,.43-.31-.25-1.04-.63-.76-5.09,3.71-10.21,7.41-15.13,11.34-.73,.59-1.46,1.18-2.17,1.79-.36,.31,.4,.95,.78,.63h0Z" fill="#002346"></path>
        <path d="M411.15,174.51c-1.89,5.8-3.78,11.6-5.66,17.4-.26,.81-.53,1.63-.79,2.44-.15,.45,.71,.96,.87,.45,1.89-5.8,3.78-11.6,5.66-17.4,.26-.81,.53-1.63,.79-2.44,.15-.45-.71-.96-.87-.45h0Z" fill="#002346"></path>
        <path d="M406.49,198.95c.38-.89,.99-1.69,1.54-2.47,1.02-1.43,2.11-2.81,3.21-4.18,3.68-4.58,7.52-9.04,11.42-13.44,2.08-2.34,4.16-4.69,6.22-7.04,.32-.37-.45-1-.78-.63-4.03,4.6-8.13,9.14-12.1,13.8-2.93,3.45-5.89,6.91-8.55,10.58-.67,.92-1.39,1.88-1.84,2.93-.18,.43,.66,.94,.87,.45h0Z" fill="#002346"></path>
        <path d="M407.82,205.16c2.85,2.27,6.02,4.16,9.19,5.94,4.79,2.7,9.73,5.17,14.7,7.52,2.73,1.29,5.46,2.56,8.2,3.83,.59,.27,.76-.48,.24-.72-9.28-4.29-18.71-8.54-27.38-14.01-1.55-.97-3.06-2-4.49-3.14-.49-.39-.95,.19-.47,.58h0Z" fill="#002346"></path>
        <path d="M406.49,209.52c1.67,2.37,3.73,4.48,5.76,6.54,3.34,3.39,6.84,6.64,10.36,9.84,2.63,2.39,5.29,4.74,7.96,7.08,.47,.41,.93-.17,.47-.58-4.4-3.85-8.77-7.75-13.02-11.76-2.83-2.67-5.64-5.39-8.24-8.29-.92-1.03-1.83-2.09-2.62-3.23-.33-.47-1.03-.15-.66,.39h0Z" fill="#002346"></path>
      </g>
    </g>
    <g>
      <g id="aw">
        <path d="M390.29,205.39c0,3.18,1.08,5.84,3.23,7.99,2.26,2.26,4.97,3.38,8.15,3.38s5.84-1.13,8-3.38c2.25-2.15,3.38-4.82,3.38-7.99s-1.13-5.89-3.38-8.15c-2.15-2.15-4.82-3.23-8-3.23s-5.89,1.08-8.15,3.23c-2.15,2.25-3.23,4.97-3.23,8.15Z" fill="#fff"></path>
      </g>
      <g id="ax">
        <path d="M412.68,205.19c-.02,2.27-.63,4.46-1.99,6.3s-3.08,3.3-5.14,4.1c-4.34,1.7-9.39,.33-12.36-3.21s-3.16-8.73-.94-12.58c2.33-4.04,6.93-5.97,11.48-5.3,2.52,.37,4.73,1.67,6.38,3.6s2.55,4.48,2.57,7.1c0,.42,.89,.83,.89,.28-.04-4.89-3.08-9.46-7.71-11.19s-10.19-.48-13.3,3.33-3.54,9.4-1.07,13.57,7.53,6.58,12.45,5.78c2.76-.45,5.04-1.96,6.88-4.02s2.73-4.7,2.76-7.47c0-.42-.88-.83-.89-.28Z" fill="#002346"></path>
      </g>
    </g>
    <g>
      <g>
        <g>
          <g id="ay">
            <path d="M400.43,286.84c-4.97-1.34-9.73-2.17-14.31-2.48-4.77-.34-8.6,2-11.51,7.03-2.92,5.09-5.76,11.65-8.52,19.69,.43-9.63-.11-17.23-1.61-22.81-1.51-5.52-4.14-9.2-7.87-11.03-3.52-1.48-8.71-2.82-15.58-4.01-2-.12-3.23,1.44-3.71,4.7-.23,2.31-.42,5.96-.6,10.94-.24,5.04,1.84,9.69,6.24,13.94,4.32,4.38,10.82,8.22,19.5,11.52-3.66-.33-7.66-.83-11.99-1.51-4.65-.72-8.7-.54-12.15,.52-3.57,.98-7.36,4.82-11.39,11.53-4.03,6.77-5.15,10.98-3.34,12.64,1.8,1.72,5.53,3.29,11.2,4.72,5.6,1.48,10.02,1.46,13.27-.08,3.23-1.41,9.14-8.63,17.73-21.65,.5,8.44,1.78,15.04,3.85,19.78,1.71,3.92,5.02,7.07,9.92,9.44,4.91,2.31,8.47,3.96,10.68,4.95,2.28,1,4.3-2.45,6.08-10.35,1.75-7.71,.66-13.53-3.26-17.47-4.06-3.89-11.98-7.55-23.76-10.98,10.77-.92,18.43-2.13,22.97-3.64,4.47-1.45,7-4.51,7.59-9.18,.7-4.52,1.43-8.75,2.18-12.69,.48-1.76-.05-2.93-1.6-3.52Z" fill="#f69074"></path>
          </g>
          <g id="az">
            <path d="M347.67,341.76c-5.19,2.41-11.5,.66-16.65-.96-2.16-.68-4.4-1.46-6.27-2.75-.5-.34-1.08-.74-1.35-1.3s-.3-1.25-.24-1.87c.18-2.17,1.2-4.3,2.17-6.21,1.45-2.88,3.16-5.66,5.1-8.23,1.44-1.91,3.06-3.78,5.03-5.17,1.8-1.28,3.86-1.87,6.03-2.2,3.53-.53,7.01-.14,10.51,.39s7.01,.96,10.53,1.29c.61,.06,.17-.68-.13-.8-6.75-2.58-13.62-5.86-18.85-10.97-2.67-2.61-4.97-5.59-5.95-9.25-.46-1.72-.53-3.44-.47-5.21,.07-1.96,.15-3.92,.26-5.89,.08-1.42,.15-2.85,.3-4.26s.51-3.12,1.6-4.11c.43-.39,.98-.61,1.57-.63,.44-.01,.9,.12,1.33,.2,.58,.1,1.16,.21,1.73,.32,1.93,.37,3.85,.79,5.75,1.27,1.55,.39,3.08,.82,4.59,1.34,1.35,.46,2.66,.95,3.82,1.79,2.68,1.94,4.36,4.91,5.41,7.99s1.55,6.28,1.87,9.49c.38,3.84,.44,7.7,.36,11.55-.02,1.12-.06,2.25-.11,3.37-.02,.35,.72,.83,.88,.37,2.33-6.76,4.94-13.6,8.58-19.78,1.53-2.6,3.64-4.98,6.51-6.1,3.09-1.21,6.62-.56,9.8-.09,2.07,.31,4.13,.7,6.16,1.18,.97,.23,2.03,.39,2.96,.76,.63,.25,1.08,.72,1.19,1.39,.13,.8-.16,1.64-.31,2.42-.18,.94-.35,1.88-.52,2.82-.35,1.93-.68,3.87-.99,5.81-.51,3.12-.72,6.35-2.84,8.88-1.73,2.06-4.19,3.05-6.72,3.74-5.9,1.62-12.1,2.27-18.17,2.85-1.04,.1-2.08,.19-3.11,.28-.51,.04,0,.72,.24,.79,4,1.17,7.97,2.46,11.83,4.04,2.89,1.18,5.75,2.53,8.38,4.23,2.24,1.45,4.24,3.17,5.5,5.56,1.59,3.01,1.87,6.52,1.56,9.86-.2,2.09-.65,4.15-1.17,6.19-.44,1.7-.93,3.4-1.64,5.02-.54,1.25-1.74,3.86-3.52,3.14-3-1.23-5.92-2.72-8.86-4.1-3.43-1.61-6.74-3.41-9.18-6.39-2.01-2.45-3.06-5.48-3.86-8.5-.99-3.72-1.53-7.55-1.87-11.38-.1-1.09-.18-2.18-.24-3.28-.02-.28-.59-.82-.83-.45-2.81,4.26-5.69,8.48-8.8,12.54-1.95,2.55-3.98,5.13-6.37,7.29-.75,.68-1.56,1.34-2.5,1.76-.44,.2,.24,.92,.64,.75,1.99-.89,3.62-2.74,5.05-4.33,2.68-2.99,5.08-6.24,7.4-9.52,1.83-2.59,3.61-5.21,5.36-7.86l-.83-.45c.25,4.22,.7,8.45,1.6,12.58,.7,3.22,1.61,6.61,3.37,9.42,1.95,3.11,4.88,5.45,8.1,7.16,1.96,1.04,4.02,1.93,6.04,2.87,1.49,.69,2.97,1.38,4.47,2.06,.81,.37,1.7,.94,2.63,.75,.85-.17,1.49-.85,1.96-1.53,.8-1.15,1.33-2.5,1.78-3.82,.69-2.01,1.22-4.1,1.64-6.18,.74-3.66,.99-7.55-.11-11.17-.87-2.87-2.61-5.27-4.95-7.12s-5.05-3.31-7.78-4.57c-3.68-1.7-7.51-3.07-11.37-4.29-1.14-.36-2.29-.71-3.44-1.04l.24,.79c6.82-.58,13.76-1.23,20.42-2.9,2.55-.64,5.09-1.45,7.07-3.27,1.01-.93,1.8-2.07,2.35-3.33,.69-1.58,.89-3.25,1.15-4.94,.33-2.09,.68-4.17,1.04-6.25,.33-1.89,.8-3.79,1.06-5.69,.18-1.33-.38-2.5-1.56-3.16-.83-.46-1.86-.61-2.78-.84-1.05-.26-2.11-.49-3.18-.7-2.05-.41-4.11-.75-6.19-.98-1.7-.19-3.44-.41-5.15-.23-2.97,.32-5.54,1.92-7.47,4.16-2.18,2.52-3.64,5.72-5.04,8.71-1.67,3.56-3.14,7.21-4.48,10.9-.37,1.02-.74,2.05-1.09,3.08l.88,.37c.19-4.34,.23-8.69-.09-13.02-.24-3.33-.67-6.67-1.54-9.9-.92-3.39-2.45-6.73-5.02-9.18-2.27-2.16-5.19-3.09-8.14-3.93-1.82-.52-3.66-.96-5.52-1.35-1.06-.23-2.13-.44-3.19-.64-.92-.17-1.91-.49-2.85-.36-2.98,.41-3.28,4.38-3.45,6.71-.13,1.75-.22,3.51-.3,5.26-.09,2.06-.3,4.16-.1,6.22,.36,3.72,2.06,7.12,4.45,9.95,4.86,5.78,11.7,9.58,18.57,12.48,1.03,.44,2.08,.85,3.13,1.25l-.13-.8c-3.36-.31-6.71-.72-10.05-1.21s-6.5-.92-9.81-.62c-2.36,.21-4.85,.7-6.9,1.96s-3.76,3.08-5.25,4.96c-2.08,2.62-3.87,5.5-5.42,8.45-1.1,2.09-2.22,4.35-2.53,6.71-.19,1.46,.06,2.77,1.19,3.77,1.6,1.42,3.69,2.28,5.67,3,3.39,1.24,7.01,2.25,10.6,2.64,2.88,.31,5.87,.16,8.53-1.07,.44-.2-.24-.93-.64-.75Z" fill="#002346"></path>
          </g>
        </g>
        <g id="ba">
          <g>
            <path d="M347.36,318.94c4.48-.28,8.95-.93,13.38-1.66,.57-.09,.06-.93-.42-.85-4.36,.71-8.74,1.36-13.15,1.63-.63,.04-.31,.91,.2,.88h0Z" fill="#002346"></path>
            <path d="M349.79,302.98c2.91,2.45,5.82,4.89,8.73,7.34,.41,.34,.82,.69,1.23,1.03,.48,.4,.98-.21,.5-.61-2.91-2.45-5.82-4.89-8.73-7.34-.41-.34-.82-.69-1.23-1.03-.48-.4-.98,.21-.5,.61h0Z" fill="#002346"></path>
            <path d="M362.91,311.25c-1.14-1.22-1.92-2.89-2.72-4.34-1.78-3.2-3.46-6.46-5.07-9.75-.83-1.7-1.68-3.39-2.58-5.05-.25-.47-1.13-.36-.82,.21,3.15,5.8,5.76,11.9,9.23,17.53,.39,.62,.77,1.29,1.28,1.83,.39,.42,1.13,.05,.68-.42h0Z" fill="#002346"></path>
            <path d="M366.54,317.68c2.92,3.96,6.08,7.76,9.14,11.61,1.69,2.12,3.38,4.24,5.07,6.36,.36,.45,1.09,.09,.68-.42-4.34-5.43-8.69-10.85-12.96-16.34-.42-.54-.84-1.08-1.25-1.63-.35-.47-1.07-.1-.68,.42h0Z" fill="#002346"></path>
            <path d="M369.37,317.88c.65,.37,1.24,.85,1.83,1.3,1.22,.92,2.4,1.89,3.61,2.82,2.68,2.06,5.41,4.06,8.16,6.02,.51,.36,1.01-.25,.5-.61-2.81-2-5.59-4.04-8.33-6.15-1.79-1.38-3.53-3.02-5.51-4.13-.57-.32-.77,.47-.27,.76h0Z" fill="#002346"></path>
            <path d="M366.84,312.15c2.75-1.54,5.24-3.57,7.64-5.6,3.37-2.84,6.64-5.82,9.84-8.85,.37-.35-.4-.99-.78-.63-3.19,3.03-6.46,6.01-9.83,8.84-2.36,1.98-4.79,3.96-7.49,5.47-.48,.27,.18,1.01,.62,.77h0Z" fill="#002346"></path>
            <path d="M368.96,313.94c1.77-.42,3.49-1.11,5.17-1.8,2.72-1.12,5.4-2.35,8.05-3.61,2.03-.96,4.04-1.95,6.05-2.94,.49-.24-.17-.99-.62-.77-5.4,2.68-10.85,5.45-16.54,7.49-.83,.3-1.67,.58-2.53,.78-.57,.14-.06,.97,.42,.85h0Z" fill="#002346"></path>
            <path d="M340.43,329.98c4.93-3.1,9.99-6,15.03-8.91,2.14-1.23,4.28-2.46,6.43-3.69,.48-.27-.18-1.02-.62-.77-6.15,3.51-12.3,7.02-18.36,10.68-1.04,.63-2.08,1.27-3.11,1.91-.47,.29,.19,1.04,.62,.77h0Z" fill="#002346"></path>
            <path d="M364.21,309.37c-.56-1.53-.97-3.11-1.39-4.68-.72-2.7-1.37-5.41-2.02-8.12-.12-.49-1.04-.62-.9-.01,1.03,4.34,1.95,8.81,3.48,13.02,.19,.51,1.04,.4,.82-.21h0Z" fill="#002346"></path>
            <path d="M349.37,333.07c4.45-4.65,8.92-9.3,13.18-14.13,.34-.39-.43-1.02-.78-.63-4.26,4.83-8.72,9.48-13.18,14.13-.36,.37,.41,1.01,.78,.63h0Z" fill="#002346"></path>
            <path d="M373.32,336.05c-1.39-3.77-2.81-7.52-4.38-11.22-.85-2-1.7-4.06-2.91-5.88-.32-.49-1.04-.12-.68,.42,1.18,1.78,2,3.85,2.83,5.81,1.55,3.65,2.95,7.36,4.32,11.07,.19,.51,1.05,.4,.82-.21h0Z" fill="#002346"></path>
          </g>
        </g>
      </g>
      <g>
        <g id="bb">
          <path d="M359.3,314.04c0,1.71,.58,3.15,1.74,4.31,1.22,1.22,2.68,1.82,4.4,1.82s3.15-.61,4.31-1.82c1.22-1.16,1.82-2.6,1.82-4.31s-.61-3.18-1.82-4.4c-1.16-1.16-2.6-1.74-4.31-1.74s-3.18,.58-4.4,1.74c-1.16,1.22-1.74,2.68-1.74,4.4Z" fill="#fff"></path>
        </g>
        <g id="bc">
          <path d="M371.18,313.87c-.03,2.34-1.46,4.53-3.65,5.45s-4.94,.29-6.51-1.58-1.62-4.54-.49-6.54c1.19-2.12,3.57-3.17,5.95-2.87,2.79,.35,4.67,2.81,4.71,5.54,0,.42,.89,.83,.89,.28-.04-2.75-1.73-5.26-4.31-6.26s-5.71-.3-7.43,1.84-1.9,5.21-.52,7.51,4.15,3.64,6.87,3.24c3.1-.45,5.35-3.27,5.39-6.34,0-.42-.88-.83-.89-.28Z" fill="#002346"></path>
        </g>
      </g>
    </g>
    <g>
      <g>
        <g>
          <g id="bd">
            <path d="M589.32,243.64c-4.81,1.83-9.16,3.95-13.05,6.37-4.06,2.52-5.8,6.67-5.2,12.44,.62,5.83,2.17,12.82,4.64,20.94-5.29-8.05-10.19-13.9-14.68-17.54-4.46-3.58-8.74-5.02-12.84-4.32-3.72,.86-8.71,2.82-14.97,5.88-1.69,1.07-1.77,3.07-.25,5.98,1.17,2.01,3.15,5.08,5.93,9.21,2.76,4.22,7.16,6.77,13.23,7.64,6.07,1.01,13.59,.31,22.55-2.1-3.16,1.88-6.7,3.81-10.6,5.81-4.19,2.15-7.37,4.66-9.54,7.54-2.32,2.88-3.14,8.22-2.47,16.02,.7,7.85,2.26,11.92,4.7,12.2,2.47,.34,6.41-.57,11.84-2.74,5.4-2.08,8.97-4.69,10.7-7.84,1.79-3.04,2.35-12.35,1.68-27.93,5.35,6.55,10.25,11.14,14.71,13.77,3.69,2.17,8.21,2.78,13.57,1.83,5.33-1.01,9.18-1.76,11.56-2.25,2.43-.52,2.05-4.51-1.14-11.95-3.1-7.27-7.39-11.35-12.88-12.24-5.57-.77-14.13,.9-25.69,5.03,8.19-7.06,13.68-12.53,16.48-16.41,2.77-3.8,3.03-7.76,.77-11.89-2.09-4.08-3.98-7.93-5.67-11.56-.64-1.71-1.76-2.34-3.36-1.91Z" fill="#f69074"></path>
          </g>
          <g id="be">
            <path d="M578.85,318.87c-2.67,4.8-8.34,7.04-13.25,8.78-2.39,.85-4.94,1.65-7.5,1.77-.65,.03-1.44,.07-2.05-.21-.54-.24-.93-.74-1.23-1.23-1.16-1.87-1.58-4.23-1.91-6.37-.48-3.1-.73-6.26-.68-9.39,.04-2.47,.26-5.01,1.06-7.36,.69-2.02,1.96-3.65,3.46-5.15,2.45-2.45,5.41-4.2,8.47-5.77,3.29-1.69,6.54-3.47,9.72-5.36,.41-.25-.21-.87-.55-.78-7.07,1.89-14.63,3.27-21.96,2.17-3.32-.5-6.6-1.39-9.36-3.37s-4.59-5.08-6.47-7.96c-.85-1.3-1.69-2.61-2.5-3.93s-1.66-2.7-1.8-4.27c-.06-.65,.04-1.32,.42-1.87,.5-.72,1.34-1,2.1-1.37,1.8-.86,3.62-1.69,5.47-2.46,1.54-.64,3.09-1.25,4.67-1.77,1.31-.44,2.67-.91,4.04-1.07,3.73-.44,7.33,1.07,10.33,3.18,2.64,1.86,4.94,4.17,7.07,6.58,2.55,2.88,4.87,5.97,7.05,9.13,.62,.9,1.23,1.81,1.83,2.72,.18,.27,.99,.56,.81-.03-2.04-6.74-3.84-13.65-4.6-20.67-.31-2.92-.12-6.03,1.37-8.63s4.2-4.14,6.83-5.58c1.62-.89,3.28-1.72,4.97-2.48,.84-.38,1.68-.75,2.53-1.1s1.85-.89,2.79-1.02c1.63-.22,2.07,1.25,2.64,2.47,.81,1.72,1.63,3.43,2.47,5.13,.89,1.81,1.79,3.62,2.71,5.41,.86,1.67,1.53,3.38,1.57,5.29,.06,3.17-1.62,5.78-3.55,8.14-4.45,5.43-9.86,10.13-15.16,14.71-.36,.31,.41,.79,.71,.69,3.92-1.4,7.89-2.67,11.93-3.64,3.04-.74,6.15-1.33,9.29-1.49,2.57-.14,5.17,.04,7.54,1.14,2.84,1.33,5.05,3.66,6.71,6.28,2.03,3.19,3.55,6.89,4.54,10.54,.37,1.36,1.29,4.55-.46,5.42-.42,.21-.93,.25-1.38,.34-.65,.13-1.3,.26-1.95,.39-1.7,.34-3.4,.66-5.1,.99-4.02,.77-8.05,1.57-12.13,.69-3.31-.72-6.1-2.56-8.69-4.66-3.01-2.43-5.71-5.23-8.25-8.15-.74-.85-1.46-1.71-2.18-2.59-.16-.2-.77-.41-.75,.03,.22,5.08,.36,10.17,.22,15.25-.08,3.21-.21,6.48-.88,9.63-.21,.98-.46,2-.97,2.87-.23,.4,.55,1.01,.78,.63,1.1-1.9,1.34-4.3,1.57-6.44,.44-4.05,.47-8.14,.43-12.21-.03-3.15-.13-6.31-.26-9.46l-.75,.03c2.75,3.36,5.68,6.61,8.93,9.49,2.52,2.23,5.32,4.44,8.5,5.64,3.79,1.43,7.94,1.35,11.87,.61,3.55-.67,7.09-1.34,10.63-2.07,.82-.17,1.51-.41,1.9-1.21,.43-.86,.39-1.92,.27-2.85-.2-1.61-.68-3.18-1.22-4.7-.71-2.02-1.53-4.02-2.5-5.93-1.54-3.04-3.59-5.94-6.4-7.93-2.34-1.66-5.02-2.52-7.88-2.64s-5.97,.29-8.88,.86c-4,.79-7.94,1.94-11.8,3.23-1.1,.37-2.2,.75-3.29,1.14l.71,.69c5.1-4.4,10.24-8.91,14.61-14.05,1.92-2.25,3.75-4.7,4.13-7.72,.5-3.93-1.7-7.26-3.38-10.63-.92-1.84-1.82-3.68-2.7-5.54-.41-.85-.81-1.7-1.19-2.56-.28-.62-.66-1.19-1.21-1.59-1.27-.92-2.64-.42-3.95,.1-1.85,.73-3.67,1.53-5.46,2.39s-3.44,1.75-5.11,2.74c-1.32,.78-2.6,1.59-3.66,2.71-1.98,2.1-2.89,4.9-3.03,7.74-.16,3.23,.51,6.55,1.11,9.71,.73,3.8,1.67,7.56,2.73,11.29,.29,1.02,.59,2.04,.9,3.05l.81-.03c-4.13-6.27-8.68-12.61-14.49-17.45-2.95-2.45-6.49-4.52-10.37-4.88-3.18-.29-6.25,.88-9.17,2-1.82,.7-3.62,1.46-5.39,2.27-1.03,.47-2.06,.95-3.08,1.45-.7,.34-1.32,.69-1.72,1.39-.75,1.3-.33,2.93,.21,4.23,.58,1.38,1.43,2.64,2.23,3.91,1.01,1.59,2.05,3.17,3.09,4.74s1.97,3.04,3.25,4.33c2.35,2.36,5.36,3.9,8.57,4.74,7.28,1.9,15.05,1.01,22.28-.65,1.14-.26,2.28-.55,3.41-.85l-.55-.78c-2.97,1.76-6,3.43-9.07,5.02-2.89,1.5-5.71,3.04-8.17,5.21-1.73,1.52-3.39,3.31-4.3,5.45s-1.26,4.68-1.38,7.07c-.17,3.32,.07,6.67,.52,9.95,.33,2.37,.75,4.85,1.83,7.01,.63,1.26,1.61,2.43,3.08,2.64,2.18,.31,4.5-.27,6.58-.87,3.49-1,7.05-2.3,10.19-4.13,2.41-1.39,4.66-3.22,6.03-5.68,.23-.41-.56-1.01-.78-.63Z" fill="#002346"></path>
          </g>
        </g>
        <g id="bf">
          <g>
            <path d="M565.1,300.85c3.47-2.85,6.7-5.99,9.87-9.18,.36-.37-.41-1-.78-.63-3.11,3.13-6.29,6.23-9.71,9.04-.43,.35,.23,1.09,.62,.77h0Z" fill="#002346"></path>
            <path d="M557.86,286.45c3.78,.28,7.55,.55,11.33,.83,.55,.04,1.1,.08,1.65,.12,.62,.05,.3-.84-.2-.88-3.78-.28-7.55-.55-11.33-.83-.55-.04-1.1-.08-1.65-.12-.62-.05-.3,.84,.2,.88h0Z" fill="#002346"></path>
            <path d="M573.09,285.36c-1.64-.32-3.25-1.22-4.74-1.92-3.32-1.55-6.59-3.2-9.83-4.93-1.67-.89-3.35-1.76-5.05-2.58-.59-.28-.8,.51-.27,.76,5.95,2.85,11.64,6.27,17.75,8.79,.68,.28,1.38,.59,2.1,.73,.64,.12,.57-.74,.04-.85h0Z" fill="#002346"></path>
            <path d="M580.06,288.54c4.69,1.49,9.47,2.73,14.21,4.05,2.61,.73,5.22,1.45,7.83,2.18,.63,.17,.55-.7,.04-.85-6.7-1.86-13.4-3.7-20.08-5.64-.66-.19-1.31-.38-1.97-.59s-.54,.68-.04,.85h0Z" fill="#002346"></path>
            <path d="M582.33,287.05c.76-.09,1.54-.05,2.3-.03,1.52,.03,3.04,.12,4.55,.16,3.41,.1,6.83,.12,10.24,.1,.63,0,.31-.88-.2-.88-3.42,.03-6.83,0-10.24-.1-1.49-.04-2.98-.13-4.48-.16-.79-.02-1.6-.06-2.38,.03-.62,.07-.31,.94,.2,.88h0Z" fill="#002346"></path>
            <path d="M576.9,283.94c1.33-2.86,2.15-5.97,2.91-9.01,1.07-4.28,1.97-8.61,2.78-12.94,.09-.49-.81-.82-.92-.23-.81,4.33-1.71,8.65-2.79,12.92-.75,2.98-1.56,6.02-2.86,8.82-.21,.45,.65,.95,.88,.44h0Z" fill="#002346"></path>
            <path d="M579.66,284.14c1.19-1.37,2.17-2.93,3.12-4.47,1.56-2.52,3.02-5.11,4.44-7.71,1.07-1.95,2.11-3.91,3.15-5.88,.23-.44-.62-.94-.88-.44-2.81,5.35-5.61,10.8-9.03,15.79-.49,.72-1.01,1.43-1.58,2.09-.34,.39,.43,1.03,.78,.63h0Z" fill="#002346"></path>
            <path d="M565.94,313.86c2.18-5.4,4.57-10.72,6.96-16.03,1.01-2.25,2.03-4.51,3.05-6.76,.21-.46-.65-.95-.88-.44-2.93,6.45-5.85,12.9-8.61,19.42-.47,1.12-.94,2.24-1.4,3.37-.19,.47,.67,.96,.88,.44h0Z" fill="#002346"></path>
            <path d="M573.15,283.15c-1.36-.92-2.63-1.96-3.9-2.99-2.18-1.78-4.33-3.61-6.46-5.45-.48-.41-.97,.2-.5,.61,2.13,1.84,4.27,3.67,6.46,5.45,1.27,1.03,2.54,2.07,3.9,2.99,.51,.35,1.02-.26,.5-.61h0Z" fill="#002346"></path>
            <path d="M575,311.12c.88-6.38,1.78-12.76,2.4-19.17,.05-.49-.86-.82-.92-.23-.62,6.41-1.51,12.79-2.4,19.17-.07,.49,.84,.82,.92,.23h0Z" fill="#002346"></path>
            <path d="M596.17,299.43c-3.35-2.25-6.71-4.47-10.17-6.56-1.88-1.14-3.8-2.32-5.87-3.1-.22-.08-.45,.08-.48,.31-.03,.27,.23,.46,.44,.54,1.98,.74,3.83,1.92,5.63,3.01,3.38,2.04,6.67,4.21,9.94,6.41,.51,.34,1.02-.26,.5-.61h0Z" fill="#002346"></path>
          </g>
        </g>
      </g>
      <g>
        <g id="bg">
          <path d="M571.93,289.79c1,1.39,2.32,2.21,3.94,2.47,1.7,.27,3.24-.09,4.63-1.1,1.39-1,2.2-2.34,2.42-4.01,.31-1.65-.04-3.17-1.05-4.56-1-1.39-2.36-2.22-4.06-2.49-1.62-.26-3.12,.11-4.51,1.12-1.39,1.01-2.24,2.33-2.54,3.99-.23,1.67,.16,3.19,1.17,4.58Z" fill="#fff"></path>
        </g>
        <g id="bh">
          <path d="M581.52,282.61c1.4,2,1.47,4.78,.02,6.79s-3.94,2.91-6.28,2.29-3.97-2.82-4.09-5.18,1.33-4.52,3.44-5.57c2.46-1.22,5.37-.39,6.97,1.76,.33,.44,1.01,.19,.62-.34-1.57-2.11-4.33-3.29-6.94-2.64s-4.72,2.92-4.96,5.6,1.36,5.51,3.8,6.7,5.5,.74,7.51-1.19c2.27-2.18,2.42-5.85,.66-8.36-.12-.18-.37-.41-.61-.34-.21,.06-.28,.29-.15,.47Z" fill="#002346"></path>
        </g>
      </g>
    </g>
  </g>
  <rect x="391.17" y="54.55" width="6.48" height="7.3" transform="translate(.07 116.9) rotate(-16.86)" fill="#fff" stroke="#002346" stroke-miterlimit="10"></rect>
  <path d="M394.59,60.2l1.98-.6c4.52-1.36,9.29,1.19,10.66,5.71h0l9.56,31.54c.2,.67-.17,1.37-.84,1.57l-15.87,4.81c-.67,.2-1.37-.17-1.57-.84l-9.56-31.54c-1.36-4.5,1.16-9.26,5.65-10.65Z" fill="#fbe493" stroke="#002346" stroke-miterlimit="10"></path>
  <path d="M405.05,64.38c-1.69,.46-3.33,1.07-4.91,1.82,0,0-3.33-12.78-4.79-13.37-1.08-.62-2.46-.24-3.08,.84,0,0,0,0,0,.01-.2,.34-.3,.73-.3,1.13,.12,1.28,2.61,15.13,2.37,15.63l-.14,1.49c-.15,1.61-1.85,2.65-3.32,1.97-.04-.02-.09-.04-.13-.06-.34-.19-.62-.45-.84-.77l-.6-1.16s-.04-.02-.06,0c-1.24,1.51-1.73,3.55-1.08,5.39,1.25,2.94,2.83,5.73,4.72,8.31l-3.09,8.22v-.06s-13.33,27.39-13.33,27.39c-4.17,7.13-5.36,12.42-5.36,12.42-.83,4.06-3.22,5.9-3.22,5.9-2.14,1.48-4.88,4.3-4.88,4.3l-11.59,13.14,4.24,27.11,4.38-6.17s13.23-16.04,19.14-24.71c.77-1.13,1.78-2.08,2.99-2.72,1-.53,2.11-1.61,2.07-3.8-.01-.77,.1-1.54,.3-2.28,.25-.93,.69-2.26,1.45-4,0,0,10.11-19.45,15.28-33.93,2.07-5.78,4.49-11.43,7.29-16.89l.27-.52s6.98-11.72,6.7-13.66-2.92-2.93-2.92-2.93c0,0-.28-3.73-2.28-4.58,0,0-1.67-4.1-5.27-3.45Z" fill="#f2b3c1" stroke="#002346" stroke-miterlimit="10"></path>
  <line x1="410.32" y1="67.83" x2="404.51" y2="73.02" fill="none" stroke="#002346" stroke-linecap="round" stroke-linejoin="round"></line>
  <line x1="412.6" y1="72.4" x2="409.06" y2="77.07" fill="none" stroke="#002346" stroke-linecap="round" stroke-linejoin="round"></line>
  <polygon points="250.86 211.47 253.43 218.84 232.07 652.53 228.14 656.83 250.86 211.47" fill="#fff" stroke="#002346" stroke-miterlimit="10"></polygon>
  <polygon points="344.68 598.5 344.56 605.01 233.48 605.01 233.77 598.5 344.68 598.5" fill="#e6e7e8" stroke="#002346" stroke-miterlimit="10"></polygon>
  <polygon points="233.77 598.5 237.48 593.88 344.79 593.84 344.68 598.5 233.77 598.5" fill="#fff" stroke="#002346" stroke-miterlimit="10"></polygon>
  <polygon points="346.27 503.46 346.16 509.97 237.66 509.97 237.95 503.46 346.27 503.46" fill="#e6e7e8" stroke="#002346" stroke-miterlimit="10"></polygon>
  <polygon points="237.95 503.46 241.65 501.05 346.39 500.27 346.26 503.46 237.95 503.46" fill="#fff" stroke="#002346" stroke-miterlimit="10"></polygon>
  <polygon points="348.61 412.35 348.49 418.86 239.99 418.86 240.28 412.35 348.61 412.35" fill="#e6e7e8" stroke="#002346" stroke-miterlimit="10"></polygon>
  <polygon points="351.68 325.3 351.56 331.8 243.06 331.8 243.35 325.3 351.68 325.3" fill="#fff" stroke="#002346" stroke-miterlimit="10"></polygon>
  <polygon points="351.19 327.63 351.07 334.14 242.57 334.14 242.86 327.63 351.19 327.63" fill="#e6e7e8" stroke="#002346" stroke-miterlimit="10"></polygon>
  <polygon points="249.63 534.16 250.49 558.84 267.43 558.72 267.43 534.04 249.63 534.16" fill="#f2b3c1" stroke="#002346" stroke-miterlimit="10"></polygon>
  <polygon points="302.3 534.53 302.18 562.77 316.79 563.26 323.42 534.53 302.3 534.53" fill="#f2b3c1" stroke="#002346" stroke-miterlimit="10"></polygon>
  <polygon points="250.86 211.47 233.77 598.5 233.48 605.01 228.14 656.83 220.53 656.83 244.1 211.47 250.86 211.47" fill="#e6e7e8" stroke="#002346" stroke-miterlimit="10"></polygon>
  <path d="M247.45,332.77s-5.92,10.45-2.12,16.1c0,0-2.82,22.84,4.17,37.21,0,0-3.81,35.49,1.84,50.83,0,0-7.49,34.26-7.12,52.8l-.98,45.8h28.73l2.58-48.13s1.03-2.5,1.09-5.65c.04-2.21,.56-4.38,1.45-6.4,.71-1.62,1.44-4.23,1.78-8.38,.07-.9,.22-1.79,.44-2.66,.08-.33,.16-.71,.22-1.11,.19-1.24,.53-2.46,1.01-3.62,.26-.64,.5-1.49,.6-2.6,.06-.6,.14-1.2,.25-1.79l5.07-25.37s2.7-10.31,2.09-17.31c0,0,3.81-12.16,4.42-23.7,0,0,1.11-11.66,2.58-14.37,0,0,.86,2.09,2.09,3.93,0,0-3.56,8.72,1.11,18.17,0,0-3.32,12.28-.25,21.61,0,0-3.47,16.21,1.34,40.31,.39,1.95,.55,3.93,.51,5.91-.02,.77,.01,1.68,.14,2.68,.26,2.01,.21,4.04-.03,6.05-.13,1.06-.14,2.34,.14,3.74,.46,2.26,.55,4.58,.36,6.88l-4.29,51.93,30.94,2.21,5.89-54.27s1.23-4.17-.61-14.61c0,0,0-20.84,1.01-36.38,.21-3.31,.96-6.56,2.2-9.63,1.46-3.64,3.4-9.93,3.92-18.57l3.93-28s4.91-22.22,3.56-42.36l-.61-11.17-.74-5.4-2.21-20.75-7.86-2.21-35.49,39.78-53.14-1.49Z" fill="#fbe493" stroke="#002346" stroke-miterlimit="10"></path>
  <path d="M268.35,595.44c-15.12,3.4-18.35,.98-18.35,.98,0,0,6.56-3.33,11.56-1.87,.56,.16,1.13,.27,1.7,.36,1.12,.17,2.92,.4,5.1,.54Z" fill="#002346" stroke="#002346" stroke-miterlimit="10"></path>
  <path d="M303.78,560.32s-3.56-1.11-3.68,3.07l-.25,9.95,14,7.74,4.67-.37,.25-9.58-.12-8.96s.25-2.7-.98-2.82l-.37,1.84s-6.39,1.11-13.51-.86Z" fill="#fff" stroke="#002346" stroke-miterlimit="10"></path>
  <polygon points="358.17 211.47 358.91 217 351.3 655.23 350.07 656.83 358.17 211.47" fill="#fff" stroke="#002346" stroke-miterlimit="10"></polygon>
  <polygon points="354.5 242.17 354.39 248.68 245.88 248.68 246.17 242.17 354.5 242.17" fill="#fff" stroke="#002346" stroke-miterlimit="10"></polygon>
  <polygon points="354.01 244.5 353.9 253.04 245.39 253.04 245.68 244.5 354.01 244.5" fill="#e6e7e8" stroke="#002346" stroke-miterlimit="10"></polygon>
  <path d="M230.1,231.36s-4.79,18.42-6.75,24.8c0,0-4.79,11.3,1.96,16.7,0,0,1.11,1.11,2.21,2.7,0,0,2.62,3.02,5.66,.68,.67-.51,1.52-.73,2.35-.58,1.96,.35,5.69,.51,8.94-2.31l5.28-4.05s1.8-.85,2.84-2.34c.18-.26,.38-.5,.59-.72,1.35-1.42,5.84-6.84,3.32-13.88,0,0-1.23-6.26-1.6-8.84,0,0-.49-4.17-2.09-5.89l-.69-1.68-.66,1.31-1.31-.39-20.06-5.5Z" fill="#f2b3c1" stroke="#002346" stroke-miterlimit="10"></path>
  <path d="M250.16,236.86s-6.06,16.48-6.06,26.06" fill="none" stroke="#002346" stroke-linecap="round" stroke-linejoin="round"></path>
  <path d="M248.48,241.77s.24,.94,1.49,2.4c.18,.21,.38,.42,.59,.61,.27,.26,.78,.85,1.04,1.8" fill="none" stroke="#002346" stroke-linecap="round" stroke-linejoin="round"></path>
  <rect x="279.51" y="160.32" width="44.57" height="32.78" fill="#f2b3c1" stroke="#002346" stroke-miterlimit="10"></rect>
  <path d="M259.07,175.6s-18.28,2.11-19.63,16.23l-9.33,39.54,21.37,5.89,3.24-10.38s3.88,23.15,5.11,42.8c0,0,0,.06,0,.17-.08,5.95-1.05,11.84-2.81,17.52-.85,2.75-1.69,6.45-2.22,11.28,0,0-.98,3.56-2.33,6.26,0,0-5.16,9.82-4.05,14.61,0,0-.83,3.4-.51,7.27,.13,1.56-.04,3.12-.42,4.63-1.02,4.06-.24,12.82,24.38,14.5,0,0,56.94,15.37,65.48-26.69,.38-1.89,.97-3.73,1.8-5.47,.69-1.44,1.35-3.6,1-6.24-.17-1.26-.06-2.55,.31-3.77,.24-.79,.5-1.75,.7-2.74,.12-.6,.96-.66,1.16-.07,.03,.09,.07,.19,.1,.29,1.26,3.56,2.02,7.28,2.22,11.05s.78,8.38,2.25,10.55l-.07-12.1c-.02-3.23,.46-6.43,1.21-9.58,.16-.7,.08-1.85-.59-3.75-.28-.79-.46-1.62-.53-2.46l-3.87-47.52c-.41-5.01-.39-10.04,.05-15.05,.45-5.06,.81-12.15,.12-17.98,0,0,.37-8.6,4.54-13.14l5.69-6.66c1.01-1.18,1.71-2.6,2.04-4.12,.81-3.79,2.5-11.41,4.02-16.52,.85-2.88,1.18-5.89,.92-8.88-.46-5.4-2.77-11.67-11.57-8.14,0,0-13.21,6.75-20.97,5.83,0,0-3.55-1.15-8.05,3.63,0,0-4.25,13.99-28.57,23.57l-25.54-18.54-6.65,4.15Z" fill="#f69074" stroke="#002346" stroke-miterlimit="10"></path>
  <rect x="300.22" y="109.31" width="22.47" height="48.75" rx="11.24" ry="11.24" fill="#f2b3c1" stroke="#002346" stroke-miterlimit="10"></rect>
  <path d="M287.81,96.17s-22.22-.25-26.4,24.44l-5.77,47.27s-.74,7.37,9.7,11.3c0,0-1.96,7.37,1.35,14.24,0,0,4.05,11.3,1.84,17.07,0,0,11.3-.37,10.44-18.05,0,0,4.3,10.56,1.72,16.94,0,0,9.21-6.51,5.89-16.94,0,0,9.7,6.26,10.68,15.72,0,0,2.59-9.7-4.97-20.67-1.39-2.01-2.43-4.24-2.98-6.62-.9-3.88-1.04-9.36,2.92-14.34,0,0,7,5.77,19.16,1.11,0,0,10.07-3.44,17.8,.98,0,0,1.64-3-2.3-6.74-1.5-1.42-2.45-3.33-2.62-5.38-.49-5.74-1.79-17.1-4.74-23.4-.71-1.53-1.1-3.18-1.11-4.87-.03-4.5-.46-13.5-3.13-20.44-1.18-3.07-3.42-5.62-6.31-7.2-4.51-2.46-12.55-5.79-21.17-4.42Z" fill="#002346" stroke="#002346" stroke-miterlimit="10"></path>
  <path d="M296.81,96.26s28.74-2.18,22.73,36.83c-6.01,39.01-1.71-.28-1.71-.28l-37.7-2.58,16.68-33.98Z" fill="#002346" stroke="#002346" stroke-miterlimit="10"></path>
  <path d="M280.75,586.34c-.77,.47-1.77,.87-2.63,1.17-1.41,.49-2.9,.73-4.4,.66-1.38-.06-2.1-.35-2.48-.66-.72-.6-1.66-.89-2.6-.86-7.53,.19-18.41,.69-18.41,.69-.61-3.32,.25-5.89,.25-5.89-.98-4.42,.49-7.61,.49-7.61l.61-5.89,11.79-3.32,7.11,2.09c3.43,.24,4.43,6.02,5.17,8.96,.35,1.39,1,2.21,1.59,2.68,1.48,1.2,2.67,2.72,3.36,4.5,.31,.79,.55,1.51,.7,2.03,.17,.56-.06,1.16-.56,1.46Z" fill="#f69074" stroke="#002346" stroke-miterlimit="10"></path>
  <path d="M282.32,591.59c-.75,2.87-2.48,3.23-2.48,3.23-3.92,.82-8.14,.83-11.48,.62-2.17-.14-3.98-.37-5.1-.54-.57-.09-1.14-.2-1.7-.36-5-1.45-11.56,1.87-11.56,1.87l-.12-6.14c-.25-2.21,.37-2.95,.37-2.95,0,0,10.88-.5,18.41-.69,.94-.02,1.87,.26,2.6,.86,.37,.31,1.1,.6,2.48,.66,1.49,.07,2.99-.17,4.4-.66,.86-.3,1.86-.7,2.63-1.17,.5-.3,.73-.9,.56-1.46,.21,.38,.4,.8,.58,1.22,.73,1.74,.9,3.67,.42,5.49Z" fill="#fff" stroke="#002346" stroke-miterlimit="10"></path>
  <path d="M250.98,573.82s-2.13-2.24-2.11-7.16c0-.42,.04-.83,.13-1.24l1.5-7.5,11.65-.92s3.64,.05,5.32-2c0,0,2.21,5.98,2.94,11.23,.06,.42,.13,.85,.23,1.27,.21,.97,.53,3-.25,4.11-.5,.71-1.53,.76-2.15,.16-1.23-1.21-4.6-3.84-10.39-3.46,0,0-4.54,.61-6.88,5.53Z" fill="#fff" stroke="#002346" stroke-miterlimit="10"></path>
  <path d="M293.46,587.7l-1.35,7.74s-2.21,5.16,19.62,4.3c2.3-.09,4.59-.46,6.78-1.17l8.69-2.84c.94-.31,1.7-.98,2.12-1.88,.94-2,1.81-5.71-2.23-8.99l-26.63,.26-3.32,1.23-3.68,1.35Z" fill="#fff" stroke="#002346" stroke-miterlimit="10"></path>
  <path d="M305.25,571.86s-7.37-4.3-9.7,7.98l-2.09,7.86s7.37,4.17,24.68,2.58c0,0,6.7-1.06,8.97-3.32,.58-.58,.56-1.52-.02-2.1l-4.56-4.56c-.67-.67-1.14-1.52-1.34-2.45-.35-1.62-1.03-4.31-2.1-6.17-.11-.19-.39-.14-.43,.07-.3,1.72-1.47,6.28-5.19,4.17l-8.23-4.05Z" fill="#f69074" stroke="#002346" stroke-miterlimit="10"></path>
  <polygon points="358.17 211.47 350.07 656.83 342.46 656.83 344.56 605.01 344.68 598.5 351.42 211.47 358.17 211.47" fill="#e6e7e8" stroke="#002346" stroke-miterlimit="10"></polygon>
  <path d="M254.71,226.87l2.83-9.72c.53-1.81,.42-3.75-.31-5.5-1.62-3.87-4.29-11.33-3.51-17.07" fill="none" stroke="#002346" stroke-linecap="round" stroke-linejoin="round"></path>
  <path d="M297.64,378.34l-3.93-7.04c-2.14-3.83-3.42-8.09-3.67-12.46-.14-2.53,.05-5.06,1.02-6.72" fill="none" stroke="#002346" stroke-linecap="round" stroke-linejoin="round"></path>
</svg>
